<svg width="150" height="45" viewBox="0 0 150 45" fill="none" xmlns="http://www.w3.org/2000/svg">
<path d="M144 0H5.53846C2.47965 0 0 2.47965 0 5.53846V38.7692C0 41.828 2.47965 44.3077 5.53846 44.3077H144C147.059 44.3077 149.538 41.828 149.538 38.7692V5.53846C149.538 2.47965 147.059 0 144 0Z" fill="black"/>
<path d="M144 0.886154C145.234 0.886154 146.417 1.37631 147.29 2.24878C148.162 3.12126 148.652 4.30459 148.652 5.53846V38.7692C148.652 40.0031 148.162 41.1864 147.29 42.0589C146.417 42.9314 145.234 43.4215 144 43.4215H5.53846C4.30459 43.4215 3.12126 42.9314 2.24878 42.0589C1.37631 41.1864 0.886154 40.0031 0.886154 38.7692V5.53846C0.886154 4.30459 1.37631 3.12126 2.24878 2.24878C3.12126 1.37631 4.30459 0.886154 5.53846 0.886154H144ZM144 0H5.53846C4.06957 0 2.66084 0.583515 1.62218 1.62218C0.583515 2.66084 0 4.06957 0 5.53846V38.7692C0 40.2381 0.583515 41.6469 1.62218 42.6855C2.66084 43.7242 4.06957 44.3077 5.53846 44.3077H144C145.469 44.3077 146.878 43.7242 147.916 42.6855C148.955 41.6469 149.538 40.2381 149.538 38.7692V5.53846C149.538 4.06957 148.955 2.66084 147.916 1.62218C146.878 0.583515 145.469 0 144 0Z" fill="#A6A6A6"/>
<path d="M28.8449 23.9343H15.1823C14.2239 23.9343 13.449 24.7092 13.449 25.6676C13.449 26.626 14.2239 27.4009 15.1823 27.4009H30.9249C30.9249 27.4009 31.7406 26.5853 30.8637 25.2598C29.9665 23.9343 28.8449 23.9343 28.8449 23.9343Z" fill="white"/>
<path d="M28.1516 9.35403L19.6685 24.0363C19.1995 24.8723 19.4646 25.9327 20.3007 26.4017C21.1368 26.8707 22.1971 26.6056 22.6662 25.7696L31.1492 11.0873C31.6182 10.2513 31.3531 9.19089 30.5171 8.72187C29.681 8.23247 28.6206 8.51795 28.1516 9.35403Z" fill="white"/>
<path d="M38.5311 30.3374L29.8238 15.2269C29.8238 15.2269 28.5594 16.2057 28.5594 18.143C28.5594 20.0802 29.3547 21.3853 29.3547 21.3853L35.5335 32.0911C36.0025 32.9272 37.0629 33.2127 37.899 32.7232C38.7147 32.2338 39.0001 31.1735 38.5311 30.3374Z" fill="white"/>
<path d="M39.408 23.9343H34.5751C33.6167 23.9343 32.8418 24.7092 32.8418 25.6676C32.8418 26.626 33.6167 27.4009 34.5751 27.4009H39.408C40.3664 27.4009 41.1413 26.626 41.1413 25.6676C41.1413 24.7296 40.3664 23.9343 39.408 23.9343Z" fill="white"/>
<path d="M28.2536 12.5352L26.4183 9.33365C25.9493 8.51797 24.8685 8.23248 24.0529 8.7015C23.2372 9.17051 22.9517 10.2513 23.4207 11.067L25.256 14.2685C25.725 15.0842 26.8058 15.3697 27.6215 14.9007C28.4371 14.4316 28.7226 13.3713 28.2536 12.5352Z" fill="white"/>
<path d="M16.0389 30.317L17.14 28.4206C17.14 28.4206 17.4051 27.8904 18.4451 27.8904C19.5463 27.8904 20.6067 28.808 20.6882 29.1547L19.0365 32.0503C18.5675 32.8864 17.5071 33.1719 16.671 32.6825C15.8349 32.2135 15.5698 31.1531 16.0389 30.317Z" fill="white"/>
<path d="M60.3912 33.7622H57.9943L56.6814 29.6366H52.1178L50.8671 33.7622H48.5336L53.055 19.7167H55.8476L60.3912 33.7622ZM56.2856 27.9057L55.0983 24.2381C54.9727 23.8634 54.7373 22.9811 54.3901 21.5922H54.3479C54.2096 22.1895 53.9869 23.0719 53.6808 24.2381L52.5146 27.9057H56.2856Z" fill="white"/>
<path d="M72.0184 28.5738C72.0184 30.2962 71.553 31.6577 70.6221 32.6572C69.7883 33.5469 68.753 33.9912 67.5171 33.9912C66.183 33.9912 65.2247 33.5121 64.6411 32.5537H64.5988V37.8889H62.3487V26.9685C62.3487 25.8856 62.3202 24.7743 62.2653 23.6344H64.2442L64.3698 25.2397H64.412C65.1624 24.0302 66.3012 23.4265 67.8295 23.4265C69.0242 23.4265 70.0216 23.8983 70.8195 24.8429C71.6195 25.7885 72.0184 27.0318 72.0184 28.5738ZM69.7261 28.6561C69.7261 27.6703 69.5044 26.8577 69.059 26.2181C68.5725 25.5511 67.9192 25.2175 67.1002 25.2175C66.545 25.2175 66.0405 25.4033 65.5899 25.7695C65.1382 26.1389 64.8426 26.6212 64.7044 27.2186C64.6347 27.4972 64.5999 27.7252 64.5999 27.9046V29.5933C64.5999 30.33 64.8258 30.9516 65.2775 31.4593C65.7292 31.9669 66.316 32.2202 67.0379 32.2202C67.8854 32.2202 68.545 31.893 69.0168 31.2408C69.4896 30.5875 69.7261 29.7263 69.7261 28.6561Z" fill="white"/>
<path d="M83.6673 28.5738C83.6673 30.2962 83.2019 31.6577 82.2699 32.6572C81.4372 33.5469 80.4018 33.9912 79.1659 33.9912C77.8319 33.9912 76.8736 33.5121 76.291 32.5537H76.2488V37.8889H73.9986V26.9685C73.9986 25.8856 73.9701 24.7743 73.9153 23.6344H75.8942L76.0198 25.2397H76.062C76.8113 24.0302 77.9501 23.4265 79.4794 23.4265C80.6731 23.4265 81.6705 23.8983 82.4705 24.8429C83.2673 25.7885 83.6673 27.0318 83.6673 28.5738ZM81.3749 28.6561C81.3749 27.6703 81.1522 26.8577 80.7069 26.2181C80.2203 25.5511 79.5691 25.2175 78.7491 25.2175C78.1929 25.2175 77.6894 25.4033 77.2377 25.7695C76.786 26.1389 76.4915 26.6212 76.3533 27.2186C76.2847 27.4972 76.2488 27.7252 76.2488 27.9046V29.5933C76.2488 30.33 76.4746 30.9516 76.9242 31.4593C77.376 31.9659 77.9628 32.2202 78.6868 32.2202C79.5343 32.2202 80.1939 31.893 80.6657 31.2408C81.1385 30.5875 81.3749 29.7263 81.3749 28.6561Z" fill="white"/>
<path d="M96.6912 29.8234C96.6912 31.0181 96.2764 31.9902 95.4437 32.7406C94.5287 33.5606 93.2548 33.9701 91.6178 33.9701C90.1065 33.9701 88.8948 33.6788 87.9777 33.0952L88.4991 31.2197C89.4869 31.8171 90.5709 32.1168 91.7519 32.1168C92.5994 32.1168 93.259 31.9247 93.7329 31.5427C94.2047 31.1606 94.44 30.6477 94.44 30.0081C94.44 29.4382 94.2458 28.958 93.8564 28.5685C93.469 28.1791 92.8221 27.8171 91.9186 27.4825C89.4595 26.5653 88.231 25.2218 88.231 23.455C88.231 22.3004 88.6616 21.3537 89.5239 20.617C90.383 19.8793 91.5292 19.5109 92.9624 19.5109C94.2405 19.5109 95.3023 19.7336 96.1498 20.178L95.5872 22.0123C94.7957 21.5817 93.9007 21.3664 92.8991 21.3664C92.1075 21.3664 91.4891 21.5616 91.0458 21.95C90.6711 22.2972 90.4833 22.7205 90.4833 23.2218C90.4833 23.7769 90.6975 24.236 91.1281 24.597C91.5028 24.9305 92.1835 25.2915 93.1714 25.6809C94.3799 26.1675 95.2675 26.7363 95.8384 27.3886C96.4073 28.0387 96.6912 28.8524 96.6912 29.8234Z" fill="white"/>
<path d="M104.131 25.3231H101.65V30.2403C101.65 31.491 102.087 32.1158 102.963 32.1158C103.366 32.1158 103.699 32.081 103.963 32.0113L104.025 33.72C103.582 33.8857 102.998 33.9691 102.275 33.9691C101.387 33.9691 100.692 33.6979 100.191 33.1564C99.6916 32.6139 99.4404 31.7042 99.4404 30.4261V25.321H97.9629V23.6324H99.4404V21.778L101.65 21.111V23.6324H104.131V25.3231Z" fill="white"/>
<path d="M115.321 28.615C115.321 30.1718 114.876 31.4499 113.987 32.4494C113.055 33.4784 111.818 33.9913 110.276 33.9913C108.79 33.9913 107.607 33.4985 106.725 32.5127C105.843 31.5269 105.401 30.2826 105.401 28.7829C105.401 27.2135 105.855 25.928 106.766 24.9285C107.675 23.9279 108.901 23.4277 110.443 23.4277C111.929 23.4277 113.125 23.9206 114.027 24.9074C114.891 25.8646 115.321 27.1005 115.321 28.615ZM112.987 28.6879C112.987 27.7538 112.787 26.9528 112.383 26.2847C111.911 25.4762 111.237 25.0731 110.363 25.0731C109.458 25.0731 108.771 25.4773 108.3 26.2847C107.895 26.9538 107.696 27.7675 107.696 28.7301C107.696 29.6641 107.895 30.4652 108.3 31.1322C108.786 31.9407 109.466 32.3438 110.343 32.3438C111.202 32.3438 111.876 31.9322 112.363 31.1111C112.778 30.4304 112.987 29.6209 112.987 28.6879Z" fill="white"/>
<path d="M122.635 25.6133C122.412 25.5722 122.175 25.5511 121.926 25.5511C121.134 25.5511 120.522 25.8497 120.092 26.4482C119.717 26.9759 119.529 27.6429 119.529 28.4482V33.7622H117.28L117.301 26.8239C117.301 25.6566 117.273 24.5938 117.217 23.6355H119.177L119.259 25.5732H119.321C119.559 24.9072 119.933 24.3711 120.446 23.969C120.948 23.607 121.489 23.4265 122.073 23.4265C122.281 23.4265 122.468 23.4413 122.635 23.4677V25.6133Z" fill="white"/>
<path d="M132.699 28.2192C132.699 28.6224 132.672 28.9622 132.616 29.2398H125.866C125.892 30.2403 126.218 31.0055 126.845 31.5332C127.414 32.005 128.15 32.2414 129.053 32.2414C130.053 32.2414 130.965 32.082 131.785 31.7622L132.137 33.3243C131.179 33.7422 130.047 33.9501 128.742 33.9501C127.171 33.9501 125.939 33.4878 125.042 32.5644C124.147 31.6409 123.698 30.4007 123.698 28.8451C123.698 27.3179 124.115 26.0461 124.95 25.0318C125.824 23.949 127.005 23.4076 128.491 23.4076C129.95 23.4076 131.055 23.949 131.806 25.0318C132.4 25.892 132.699 26.9559 132.699 28.2192ZM130.553 27.6356C130.568 26.9685 130.421 26.3923 130.116 25.9057C129.727 25.2799 129.128 24.9675 128.323 24.9675C127.587 24.9675 126.989 25.2725 126.532 25.8846C126.157 26.3712 125.934 26.9548 125.866 27.6345H130.553V27.6356Z" fill="white"/>
<path d="M61.33 14C61.2367 14 61.19 13.9533 61.19 13.86V4.97C61.19 4.87667 61.2367 4.83 61.33 4.83H63.78C65.2173 4.83 66.2907 5.166 67 5.838C67.7093 6.50067 68.064 7.50867 68.064 8.862V9.562C68.064 11.0553 67.7093 12.1707 67 12.908C66.3 13.636 65.2267 14 63.78 14H61.33ZM62.38 12.992H63.696C64.788 12.992 65.5907 12.7213 66.104 12.18C66.6173 11.6387 66.874 10.794 66.874 9.646V8.778C66.874 7.77 66.6173 7.028 66.104 6.552C65.5907 6.076 64.788 5.838 63.696 5.838H62.38V12.992ZM72.7208 14.168C71.7781 14.168 71.0594 13.9393 70.5648 13.482C70.0794 13.0247 69.8368 12.3293 69.8368 11.396V9.772C69.8368 8.83867 70.0794 8.14333 70.5648 7.686C71.0501 7.22867 71.7688 7 72.7208 7C73.6634 7 74.3774 7.22867 74.8628 7.686C75.3574 8.14333 75.6048 8.83867 75.6048 9.772V11.396C75.6048 12.3293 75.3621 13.0247 74.8768 13.482C74.3914 13.9393 73.6728 14.168 72.7208 14.168ZM72.7208 13.118C73.3181 13.118 73.7474 12.9687 74.0088 12.67C74.2794 12.362 74.4148 11.9 74.4148 11.284V9.884C74.4148 9.268 74.2794 8.81067 74.0088 8.512C73.7474 8.204 73.3181 8.05 72.7208 8.05C72.1234 8.05 71.6894 8.204 71.4188 8.512C71.1574 8.81067 71.0267 9.268 71.0267 9.884V11.284C71.0267 11.9 71.1574 12.362 71.4188 12.67C71.6894 12.9687 72.1234 13.118 72.7208 13.118ZM78.9543 14C78.8796 14 78.8283 13.958 78.8003 13.874L76.7703 7.322C76.7423 7.21933 76.7796 7.168 76.8823 7.168H77.8623C77.9369 7.168 77.9883 7.21 78.0163 7.294L79.1223 11.158C79.2063 11.4567 79.2903 11.7553 79.3743 12.054C79.4583 12.3527 79.5423 12.6513 79.6263 12.95H79.6543C79.7476 12.6607 79.8409 12.3713 79.9343 12.082C80.0276 11.7927 80.1209 11.5033 80.2143 11.214L80.9703 8.876L80.5503 7.462C80.5223 7.35933 80.5596 7.308 80.6623 7.308H81.5443C81.6283 7.308 81.6796 7.34533 81.6983 7.42L82.7343 11.228C82.8089 11.5173 82.8836 11.8067 82.9583 12.096C83.0329 12.376 83.1076 12.6607 83.1823 12.95H83.2103C83.2943 12.6513 83.3736 12.3573 83.4483 12.068C83.5323 11.7693 83.6163 11.4753 83.7003 11.186L84.8203 7.294C84.8483 7.21 84.8996 7.168 84.9743 7.168H85.9543C86.0569 7.168 86.0943 7.21933 86.0663 7.322L84.0223 13.874C84.0129 13.9113 83.9943 13.944 83.9663 13.972C83.9476 13.9907 83.9149 14 83.8683 14H82.5943C82.5196 14 82.4683 13.9627 82.4403 13.888L82.0063 12.46C81.9129 12.1427 81.8243 11.8207 81.7403 11.494C81.6563 11.1673 81.5676 10.8173 81.4743 10.444H81.4463C81.3529 10.8173 81.2549 11.1627 81.1523 11.48C81.0589 11.7973 80.9609 12.11 80.8583 12.418L80.3823 13.888C80.3543 13.9627 80.3029 14 80.2283 14H78.9543ZM92.1117 14C92.0184 14 91.9717 13.9533 91.9717 13.86V9.394C91.9717 8.92733 91.8737 8.58667 91.6777 8.372C91.4911 8.15733 91.2064 8.05 90.8237 8.05C90.4597 8.05 90.1004 8.15733 89.7457 8.372C89.3911 8.58667 88.9477 8.95533 88.4157 9.478L88.4297 8.4C88.7471 8.064 89.0457 7.79333 89.3257 7.588C89.6151 7.38267 89.8997 7.23333 90.1797 7.14C90.4691 7.04667 90.7724 7 91.0897 7C91.7617 7 92.2751 7.196 92.6297 7.588C92.9844 7.98 93.1617 8.56333 93.1617 9.338V13.86C93.1617 13.9533 93.1151 14 93.0217 14H92.1117ZM87.6177 14C87.5244 14 87.4777 13.9533 87.4777 13.86V8.876C87.4777 8.63333 87.4637 8.36267 87.4357 8.064C87.4171 7.756 87.3984 7.518 87.3797 7.35C87.3611 7.22867 87.4077 7.168 87.5197 7.168H88.3737C88.4204 7.168 88.4531 7.17733 88.4717 7.196C88.4997 7.21467 88.5184 7.252 88.5277 7.308C88.5464 7.38267 88.5651 7.49933 88.5837 7.658C88.6024 7.81667 88.6211 7.98467 88.6397 8.162C88.6584 8.33 88.6677 8.47467 88.6677 8.596V8.96V13.86C88.6677 13.9533 88.6211 14 88.5277 14H87.6177ZM95.397 14C95.3037 14 95.257 13.9533 95.257 13.86V4.578C95.257 4.48467 95.3037 4.438 95.397 4.438H96.307C96.4004 4.438 96.447 4.48467 96.447 4.578V13.86C96.447 13.9533 96.4004 14 96.307 14H95.397ZM101.254 14.168C100.311 14.168 99.5926 13.9393 99.098 13.482C98.6126 13.0247 98.37 12.3293 98.37 11.396V9.772C98.37 8.83867 98.6126 8.14333 99.098 7.686C99.5833 7.22867 100.302 7 101.254 7C102.197 7 102.911 7.22867 103.396 7.686C103.891 8.14333 104.138 8.83867 104.138 9.772V11.396C104.138 12.3293 103.895 13.0247 103.41 13.482C102.925 13.9393 102.206 14.168 101.254 14.168ZM101.254 13.118C101.851 13.118 102.281 12.9687 102.542 12.67C102.813 12.362 102.948 11.9 102.948 11.284V9.884C102.948 9.268 102.813 8.81067 102.542 8.512C102.281 8.204 101.851 8.05 101.254 8.05C100.657 8.05 100.223 8.204 99.952 8.512C99.6906 8.81067 99.56 9.268 99.56 9.884V11.284C99.56 11.9 99.6906 12.362 99.952 12.67C100.223 12.9687 100.657 13.118 101.254 13.118ZM110.02 14C109.964 14 109.926 13.9813 109.908 13.944C109.889 13.9067 109.87 13.86 109.852 13.804C109.842 13.7293 109.819 13.5707 109.782 13.328C109.754 13.076 109.735 12.852 109.726 12.656L109.684 12.124V9.338C109.684 8.87133 109.59 8.54 109.404 8.344C109.217 8.148 108.89 8.05 108.424 8.05C107.584 8.05 107.164 8.33933 107.164 8.918C107.164 9.01133 107.122 9.058 107.038 9.058H106.114C106.02 9.058 105.969 8.96933 105.96 8.792C105.913 8.26 106.118 7.83067 106.576 7.504C107.042 7.168 107.672 7 108.466 7C109.278 7 109.88 7.19133 110.272 7.574C110.673 7.95667 110.874 8.53533 110.874 9.31V12.306C110.874 12.6327 110.883 12.9267 110.902 13.188C110.92 13.44 110.944 13.6593 110.972 13.846C110.99 13.9487 110.944 14 110.832 14H110.02ZM107.346 14.168C106.804 14.168 106.389 14.0047 106.1 13.678C105.82 13.3513 105.68 12.8753 105.68 12.25C105.68 11.7647 105.773 11.368 105.96 11.06C106.156 10.752 106.464 10.514 106.884 10.346C107.313 10.178 107.882 10.066 108.592 10.01L109.908 9.898V10.808L108.564 10.92C107.92 10.976 107.476 11.0927 107.234 11.27C106.991 11.4473 106.87 11.746 106.87 12.166C106.87 12.4833 106.935 12.7213 107.066 12.88C107.196 13.0387 107.392 13.118 107.654 13.118C107.962 13.118 108.284 13.0153 108.62 12.81C108.956 12.5953 109.399 12.2033 109.95 11.634V12.684C109.623 13.0387 109.315 13.328 109.026 13.552C108.746 13.7667 108.47 13.9207 108.2 14.014C107.929 14.1167 107.644 14.168 107.346 14.168ZM114.852 14.168C114.198 14.168 113.694 13.9487 113.34 13.51C112.994 13.0713 112.822 12.4227 112.822 11.564V9.814C112.822 8.92733 113.046 8.23667 113.494 7.742C113.942 7.24733 114.562 7 115.356 7C115.72 7 116.102 7.05133 116.504 7.154C116.905 7.24733 117.208 7.36867 117.414 7.518L117.484 8.54C117.185 8.38133 116.858 8.26 116.504 8.176C116.149 8.092 115.836 8.05 115.566 8.05C115.043 8.05 114.651 8.20867 114.39 8.526C114.138 8.84333 114.012 9.31933 114.012 9.954V11.634C114.012 12.1287 114.105 12.502 114.292 12.754C114.488 12.9967 114.777 13.118 115.16 13.118C115.393 13.118 115.622 13.076 115.846 12.992C116.07 12.8987 116.317 12.7493 116.588 12.544C116.858 12.3293 117.176 12.04 117.54 11.676L117.512 12.768C117.194 13.0853 116.891 13.3513 116.602 13.566C116.322 13.7713 116.037 13.9207 115.748 14.014C115.468 14.1167 115.169 14.168 114.852 14.168ZM117.61 14C117.563 14 117.526 13.9907 117.498 13.972C117.47 13.944 117.451 13.902 117.442 13.846C117.423 13.706 117.4 13.5287 117.372 13.314C117.344 13.0993 117.334 12.922 117.344 12.782L117.274 12.152V4.578C117.274 4.48467 117.32 4.438 117.414 4.438H118.324C118.417 4.438 118.464 4.48467 118.464 4.578V12.418C118.464 12.5487 118.468 12.7073 118.478 12.894C118.487 13.0713 118.496 13.244 118.506 13.412C118.524 13.58 118.543 13.7107 118.562 13.804C118.59 13.9347 118.543 14 118.422 14H117.61Z" fill="white"/>
<path d="M61.33 14C61.2367 14 61.19 13.9533 61.19 13.86V4.97C61.19 4.87667 61.2367 4.83 61.33 4.83H63.78C65.2173 4.83 66.2907 5.166 67 5.838C67.7093 6.50067 68.064 7.50867 68.064 8.862V9.562C68.064 11.0553 67.7093 12.1707 67 12.908C66.3 13.636 65.2267 14 63.78 14H61.33ZM62.38 12.992H63.696C64.788 12.992 65.5907 12.7213 66.104 12.18C66.6173 11.6387 66.874 10.794 66.874 9.646V8.778C66.874 7.77 66.6173 7.028 66.104 6.552C65.5907 6.076 64.788 5.838 63.696 5.838H62.38V12.992ZM72.7208 14.168C71.7781 14.168 71.0594 13.9393 70.5648 13.482C70.0794 13.0247 69.8368 12.3293 69.8368 11.396V9.772C69.8368 8.83867 70.0794 8.14333 70.5648 7.686C71.0501 7.22867 71.7688 7 72.7208 7C73.6634 7 74.3774 7.22867 74.8628 7.686C75.3574 8.14333 75.6048 8.83867 75.6048 9.772V11.396C75.6048 12.3293 75.3621 13.0247 74.8768 13.482C74.3914 13.9393 73.6728 14.168 72.7208 14.168ZM72.7208 13.118C73.3181 13.118 73.7474 12.9687 74.0088 12.67C74.2794 12.362 74.4148 11.9 74.4148 11.284V9.884C74.4148 9.268 74.2794 8.81067 74.0088 8.512C73.7474 8.204 73.3181 8.05 72.7208 8.05C72.1234 8.05 71.6894 8.204 71.4188 8.512C71.1574 8.81067 71.0267 9.268 71.0267 9.884V11.284C71.0267 11.9 71.1574 12.362 71.4188 12.67C71.6894 12.9687 72.1234 13.118 72.7208 13.118ZM78.9543 14C78.8796 14 78.8283 13.958 78.8003 13.874L76.7703 7.322C76.7423 7.21933 76.7796 7.168 76.8823 7.168H77.8623C77.9369 7.168 77.9883 7.21 78.0163 7.294L79.1223 11.158C79.2063 11.4567 79.2903 11.7553 79.3743 12.054C79.4583 12.3527 79.5423 12.6513 79.6263 12.95H79.6543C79.7476 12.6607 79.8409 12.3713 79.9343 12.082C80.0276 11.7927 80.1209 11.5033 80.2143 11.214L80.9703 8.876L80.5503 7.462C80.5223 7.35933 80.5596 7.308 80.6623 7.308H81.5443C81.6283 7.308 81.6796 7.34533 81.6983 7.42L82.7343 11.228C82.8089 11.5173 82.8836 11.8067 82.9583 12.096C83.0329 12.376 83.1076 12.6607 83.1823 12.95H83.2103C83.2943 12.6513 83.3736 12.3573 83.4483 12.068C83.5323 11.7693 83.6163 11.4753 83.7003 11.186L84.8203 7.294C84.8483 7.21 84.8996 7.168 84.9743 7.168H85.9543C86.0569 7.168 86.0943 7.21933 86.0663 7.322L84.0223 13.874C84.0129 13.9113 83.9943 13.944 83.9663 13.972C83.9476 13.9907 83.9149 14 83.8683 14H82.5943C82.5196 14 82.4683 13.9627 82.4403 13.888L82.0063 12.46C81.9129 12.1427 81.8243 11.8207 81.7403 11.494C81.6563 11.1673 81.5676 10.8173 81.4743 10.444H81.4463C81.3529 10.8173 81.2549 11.1627 81.1523 11.48C81.0589 11.7973 80.9609 12.11 80.8583 12.418L80.3823 13.888C80.3543 13.9627 80.3029 14 80.2283 14H78.9543ZM92.1117 14C92.0184 14 91.9717 13.9533 91.9717 13.86V9.394C91.9717 8.92733 91.8737 8.58667 91.6777 8.372C91.4911 8.15733 91.2064 8.05 90.8237 8.05C90.4597 8.05 90.1004 8.15733 89.7457 8.372C89.3911 8.58667 88.9477 8.95533 88.4157 9.478L88.4297 8.4C88.7471 8.064 89.0457 7.79333 89.3257 7.588C89.6151 7.38267 89.8997 7.23333 90.1797 7.14C90.4691 7.04667 90.7724 7 91.0897 7C91.7617 7 92.2751 7.196 92.6297 7.588C92.9844 7.98 93.1617 8.56333 93.1617 9.338V13.86C93.1617 13.9533 93.1151 14 93.0217 14H92.1117ZM87.6177 14C87.5244 14 87.4777 13.9533 87.4777 13.86V8.876C87.4777 8.63333 87.4637 8.36267 87.4357 8.064C87.4171 7.756 87.3984 7.518 87.3797 7.35C87.3611 7.22867 87.4077 7.168 87.5197 7.168H88.3737C88.4204 7.168 88.4531 7.17733 88.4717 7.196C88.4997 7.21467 88.5184 7.252 88.5277 7.308C88.5464 7.38267 88.5651 7.49933 88.5837 7.658C88.6024 7.81667 88.6211 7.98467 88.6397 8.162C88.6584 8.33 88.6677 8.47467 88.6677 8.596V8.96V13.86C88.6677 13.9533 88.6211 14 88.5277 14H87.6177ZM95.397 14C95.3037 14 95.257 13.9533 95.257 13.86V4.578C95.257 4.48467 95.3037 4.438 95.397 4.438H96.307C96.4004 4.438 96.447 4.48467 96.447 4.578V13.86C96.447 13.9533 96.4004 14 96.307 14H95.397ZM101.254 14.168C100.311 14.168 99.5926 13.9393 99.098 13.482C98.6126 13.0247 98.37 12.3293 98.37 11.396V9.772C98.37 8.83867 98.6126 8.14333 99.098 7.686C99.5833 7.22867 100.302 7 101.254 7C102.197 7 102.911 7.22867 103.396 7.686C103.891 8.14333 104.138 8.83867 104.138 9.772V11.396C104.138 12.3293 103.895 13.0247 103.41 13.482C102.925 13.9393 102.206 14.168 101.254 14.168ZM101.254 13.118C101.851 13.118 102.281 12.9687 102.542 12.67C102.813 12.362 102.948 11.9 102.948 11.284V9.884C102.948 9.268 102.813 8.81067 102.542 8.512C102.281 8.204 101.851 8.05 101.254 8.05C100.657 8.05 100.223 8.204 99.952 8.512C99.6906 8.81067 99.56 9.268 99.56 9.884V11.284C99.56 11.9 99.6906 12.362 99.952 12.67C100.223 12.9687 100.657 13.118 101.254 13.118ZM110.02 14C109.964 14 109.926 13.9813 109.908 13.944C109.889 13.9067 109.87 13.86 109.852 13.804C109.842 13.7293 109.819 13.5707 109.782 13.328C109.754 13.076 109.735 12.852 109.726 12.656L109.684 12.124V9.338C109.684 8.87133 109.59 8.54 109.404 8.344C109.217 8.148 108.89 8.05 108.424 8.05C107.584 8.05 107.164 8.33933 107.164 8.918C107.164 9.01133 107.122 9.058 107.038 9.058H106.114C106.02 9.058 105.969 8.96933 105.96 8.792C105.913 8.26 106.118 7.83067 106.576 7.504C107.042 7.168 107.672 7 108.466 7C109.278 7 109.88 7.19133 110.272 7.574C110.673 7.95667 110.874 8.53533 110.874 9.31V12.306C110.874 12.6327 110.883 12.9267 110.902 13.188C110.92 13.44 110.944 13.6593 110.972 13.846C110.99 13.9487 110.944 14 110.832 14H110.02ZM107.346 14.168C106.804 14.168 106.389 14.0047 106.1 13.678C105.82 13.3513 105.68 12.8753 105.68 12.25C105.68 11.7647 105.773 11.368 105.96 11.06C106.156 10.752 106.464 10.514 106.884 10.346C107.313 10.178 107.882 10.066 108.592 10.01L109.908 9.898V10.808L108.564 10.92C107.92 10.976 107.476 11.0927 107.234 11.27C106.991 11.4473 106.87 11.746 106.87 12.166C106.87 12.4833 106.935 12.7213 107.066 12.88C107.196 13.0387 107.392 13.118 107.654 13.118C107.962 13.118 108.284 13.0153 108.62 12.81C108.956 12.5953 109.399 12.2033 109.95 11.634V12.684C109.623 13.0387 109.315 13.328 109.026 13.552C108.746 13.7667 108.47 13.9207 108.2 14.014C107.929 14.1167 107.644 14.168 107.346 14.168ZM114.852 14.168C114.198 14.168 113.694 13.9487 113.34 13.51C112.994 13.0713 112.822 12.4227 112.822 11.564V9.814C112.822 8.92733 113.046 8.23667 113.494 7.742C113.942 7.24733 114.562 7 115.356 7C115.72 7 116.102 7.05133 116.504 7.154C116.905 7.24733 117.208 7.36867 117.414 7.518L117.484 8.54C117.185 8.38133 116.858 8.26 116.504 8.176C116.149 8.092 115.836 8.05 115.566 8.05C115.043 8.05 114.651 8.20867 114.39 8.526C114.138 8.84333 114.012 9.31933 114.012 9.954V11.634C114.012 12.1287 114.105 12.502 114.292 12.754C114.488 12.9967 114.777 13.118 115.16 13.118C115.393 13.118 115.622 13.076 115.846 12.992C116.07 12.8987 116.317 12.7493 116.588 12.544C116.858 12.3293 117.176 12.04 117.54 11.676L117.512 12.768C117.194 13.0853 116.891 13.3513 116.602 13.566C116.322 13.7713 116.037 13.9207 115.748 14.014C115.468 14.1167 115.169 14.168 114.852 14.168ZM117.61 14C117.563 14 117.526 13.9907 117.498 13.972C117.47 13.944 117.451 13.902 117.442 13.846C117.423 13.706 117.4 13.5287 117.372 13.314C117.344 13.0993 117.334 12.922 117.344 12.782L117.274 12.152V4.578C117.274 4.48467 117.32 4.438 117.414 4.438H118.324C118.417 4.438 118.464 4.48467 118.464 4.578V12.418C118.464 12.5487 118.468 12.7073 118.478 12.894C118.487 13.0713 118.496 13.244 118.506 13.412C118.524 13.58 118.543 13.7107 118.562 13.804C118.59 13.9347 118.543 14 118.422 14H117.61Z" fill="white"/>
</svg>
