<svg width="109" height="33" viewBox="0 0 109 33" fill="none" xmlns="http://www.w3.org/2000/svg">
<path d="M104.306 0H4.01178C1.79614 0 0 1.79614 0 4.01178V28.0825C0 30.2981 1.79614 32.0943 4.01178 32.0943H104.306C106.522 32.0943 108.318 30.2981 108.318 28.0825V4.01178C108.318 1.79614 106.522 0 104.306 0Z" fill="black"/>
<path d="M104.306 0.641885C105.2 0.641885 106.057 0.996927 106.689 1.62891C107.321 2.26088 107.676 3.11803 107.676 4.01178V28.0825C107.676 28.9762 107.321 29.8334 106.689 30.4654C106.057 31.0973 105.2 31.4524 104.306 31.4524H4.01178C3.11803 31.4524 2.26088 31.0973 1.62891 30.4654C0.996927 29.8334 0.641885 28.9762 0.641885 28.0825V4.01178C0.641885 3.11803 0.996927 2.26088 1.62891 1.62891C2.26088 0.996927 3.11803 0.641885 4.01178 0.641885H104.306ZM104.306 0H4.01178C2.94779 0 1.92738 0.422669 1.17502 1.17502C0.422669 1.92738 0 2.94779 0 4.01178V28.0825C0 29.1465 0.422669 30.1669 1.17502 30.9192C1.92738 31.6716 2.94779 32.0943 4.01178 32.0943H104.306C105.37 32.0943 106.391 31.6716 107.143 30.9192C107.895 30.1669 108.318 29.1465 108.318 28.0825V4.01178C108.318 2.94779 107.895 1.92738 107.143 1.17502C106.391 0.422669 105.37 0 104.306 0Z" fill="#A6A6A6"/>
<path d="M20.8938 17.3369H10.9973C10.3031 17.3369 9.74176 17.8982 9.74176 18.5924C9.74176 19.2867 10.3031 19.848 10.9973 19.848H22.4004C22.4004 19.848 22.9913 19.2571 22.3561 18.297C21.7062 17.3369 20.8938 17.3369 20.8938 17.3369Z" fill="white"/>
<path d="M20.3916 6.77561L14.2469 17.4107C13.9071 18.0163 14.0992 18.7844 14.7048 19.1241C15.3104 19.4638 16.0785 19.2718 16.4182 18.6662L22.5629 8.03114C22.9026 7.42553 22.7106 6.65744 22.105 6.31771C21.4994 5.96321 20.7313 6.17 20.3916 6.77561Z" fill="white"/>
<path d="M27.91 21.975L21.6028 11.0298C21.6028 11.0298 20.687 11.7388 20.687 13.142C20.687 14.5453 21.2631 15.4906 21.2631 15.4906L25.7387 23.2453C26.0784 23.8509 26.8465 24.0577 27.4521 23.7032C28.0429 23.3487 28.2497 22.5806 27.91 21.975Z" fill="white"/>
<path d="M28.5452 17.3369H25.0445C24.3502 17.3369 23.7889 17.8982 23.7889 18.5924C23.7889 19.2867 24.3502 19.848 25.0445 19.848H28.5452C29.2394 19.848 29.8007 19.2867 29.8007 18.5924C29.8007 17.913 29.2394 17.3369 28.5452 17.3369Z" fill="white"/>
<path d="M20.4655 9.07998L19.1361 6.76094C18.7964 6.17011 18.0135 5.96331 17.4227 6.30304C16.8318 6.64278 16.6251 7.42563 16.9648 8.01647L18.2942 10.3355C18.6339 10.9263 19.4168 11.1331 20.0076 10.7934C20.5984 10.4537 20.8052 9.68559 20.4655 9.07998Z" fill="white"/>
<path d="M11.6177 21.9601L12.4154 20.5864C12.4154 20.5864 12.6074 20.2024 13.3607 20.2024C14.1583 20.2024 14.9264 20.8671 14.9855 21.1182L13.7891 23.2157C13.4493 23.8213 12.6812 24.0281 12.0756 23.6736C11.47 23.3338 11.278 22.5657 11.6177 21.9601Z" fill="white"/>
<path d="M43.7443 24.4556H42.0082L41.0571 21.4672H37.7515L36.8456 24.4556H35.1553L38.4304 14.2817H40.4532L43.7443 24.4556ZM40.7705 20.2134L39.9104 17.5568C39.8194 17.2854 39.6489 16.6463 39.3974 15.6402H39.3668C39.2667 16.0729 39.1054 16.7121 38.8837 17.5568L38.0389 20.2134H40.7705Z" fill="white"/>
<path d="M52.1665 20.6974C52.1665 21.9451 51.8294 22.9313 51.1551 23.6552C50.5512 24.2997 49.8012 24.6215 48.906 24.6215C47.9397 24.6215 47.2455 24.2745 46.8227 23.5803H46.7922V27.4448H45.1623V19.5346C45.1623 18.7503 45.1416 17.9452 45.1019 17.1196H46.5353L46.6263 18.2824H46.6568C47.2004 17.4063 48.0253 16.969 49.1323 16.969C49.9977 16.969 50.7201 17.3107 51.2981 17.9949C51.8775 18.6799 52.1665 19.5805 52.1665 20.6974ZM50.506 20.757C50.506 20.043 50.3455 19.4544 50.0229 18.9911C49.6705 18.5079 49.1972 18.2663 48.604 18.2663C48.2019 18.2663 47.8364 18.4009 47.51 18.6662C47.1828 18.9337 46.9688 19.2831 46.8686 19.7158C46.8181 19.9176 46.7929 20.0828 46.7929 20.2127V21.4359C46.7929 21.9695 46.9565 22.4198 47.2837 22.7875C47.6109 23.1552 48.036 23.3387 48.5589 23.3387C49.1728 23.3387 49.6506 23.1017 49.9923 22.6293C50.3348 22.1561 50.506 21.5322 50.506 20.757Z" fill="white"/>
<path d="M60.6044 20.6974C60.6044 21.9451 60.2672 22.9313 59.5922 23.6552C58.989 24.2997 58.239 24.6215 57.3438 24.6215C56.3775 24.6215 55.6833 24.2745 55.2613 23.5803H55.2308V27.4448H53.6009V19.5346C53.6009 18.7503 53.5802 17.9452 53.5405 17.1196H54.9739L55.0649 18.2824H55.0954C55.6382 17.4063 56.4631 16.969 57.5709 16.969C58.4355 16.969 59.1579 17.3107 59.7374 17.9949C60.3146 18.6799 60.6044 19.5805 60.6044 20.6974ZM58.9439 20.757C58.9439 20.043 58.7826 19.4544 58.46 18.9911C58.1075 18.5079 57.6358 18.2663 57.0418 18.2663C56.6389 18.2663 56.2743 18.4009 55.9471 18.6662C55.6199 18.9337 55.4066 19.2831 55.3064 19.7158C55.2567 19.9176 55.2308 20.0828 55.2308 20.2127V21.4359C55.2308 21.9695 55.3944 22.4198 55.72 22.7875C56.0472 23.1545 56.4723 23.3387 56.9967 23.3387C57.6106 23.3387 58.0884 23.1017 58.4301 22.6293C58.7726 22.1561 58.9439 21.5322 58.9439 20.757Z" fill="white"/>
<path d="M70.0383 21.6026C70.0383 22.4681 69.7378 23.1721 69.1346 23.7157C68.4718 24.3097 67.5491 24.6063 66.3634 24.6063C65.2686 24.6063 64.391 24.3953 63.7266 23.9726L64.1043 22.6141C64.8198 23.0468 65.605 23.2639 66.4604 23.2639C67.0743 23.2639 67.5521 23.1247 67.8954 22.848C68.2371 22.5713 68.4076 22.1997 68.4076 21.7364C68.4076 21.3236 68.2669 20.9758 67.9848 20.6937C67.7043 20.4116 67.2356 20.1494 66.5812 19.907C64.8 19.2427 63.9101 18.2695 63.9101 16.9897C63.9101 16.1534 64.222 15.4676 64.8466 14.934C65.4689 14.3996 66.2991 14.1328 67.3373 14.1328C68.2631 14.1328 69.0322 14.2941 69.6461 14.616L69.2386 15.9447C68.6652 15.6327 68.0169 15.4768 67.2914 15.4768C66.7181 15.4768 66.2701 15.6182 65.949 15.8996C65.6776 16.1511 65.5415 16.4576 65.5415 16.8208C65.5415 17.2229 65.6967 17.5554 66.0086 17.8169C66.28 18.0585 66.7731 18.3199 67.4887 18.602C68.364 18.9545 69.007 19.3665 69.4206 19.839C69.8326 20.3099 70.0383 20.8993 70.0383 21.6026Z" fill="white"/>
<path d="M75.427 18.3428H73.6305V21.9046C73.6305 22.8105 73.947 23.2631 74.5815 23.2631C74.8728 23.2631 75.1144 23.2379 75.3055 23.1874L75.3506 24.4251C75.0295 24.5451 74.6067 24.6055 74.0831 24.6055C73.4394 24.6055 72.9363 24.4091 72.5732 24.0169C72.2116 23.6239 72.0296 22.9649 72.0296 22.0391V18.3413H70.9594V17.1181H72.0296V15.7749L73.6305 15.2917V17.1181H75.427V18.3428Z" fill="white"/>
<path d="M83.533 20.7274C83.533 21.8551 83.2104 22.7809 82.5667 23.5048C81.8916 24.2502 80.9956 24.6218 79.8787 24.6218C78.8023 24.6218 77.9453 24.2647 77.3062 23.5507C76.6671 22.8367 76.3475 21.9353 76.3475 20.849C76.3475 19.7122 76.6763 18.781 77.336 18.0571C77.9942 17.3323 78.8826 16.97 79.9995 16.97C81.0759 16.97 81.9421 17.327 82.5957 18.0418C83.2211 18.7352 83.533 19.6304 83.533 20.7274ZM81.8419 20.7802C81.8419 20.1036 81.6974 19.5234 81.4046 19.0394C81.0629 18.4538 80.5744 18.1618 79.9414 18.1618C79.2862 18.1618 78.7886 18.4546 78.4468 19.0394C78.154 19.5241 78.0095 20.1136 78.0095 20.8108C78.0095 21.4873 78.154 22.0676 78.4468 22.5507C78.7993 23.1363 79.2916 23.4284 79.9269 23.4284C80.5492 23.4284 81.0377 23.1302 81.3901 22.5355C81.6906 22.0424 81.8419 21.456 81.8419 20.7802Z" fill="white"/>
<path d="M88.8308 18.553C88.6695 18.5232 88.4975 18.5079 88.317 18.5079C87.7437 18.5079 87.3003 18.7243 86.9884 19.1577C86.717 19.54 86.5809 20.0231 86.5809 20.6064V24.4556H84.9518L84.967 19.4299C84.967 18.5844 84.9464 17.8145 84.9059 17.1204H86.3255L86.3852 18.524H86.4303C86.6023 18.0416 86.8737 17.6532 87.2452 17.3619C87.6084 17.0997 88.0005 16.969 88.4233 16.969C88.5739 16.969 88.71 16.9797 88.8308 16.9988V18.553Z" fill="white"/>
<path d="M96.1202 20.4406C96.1202 20.7327 96.1011 20.9788 96.0606 21.1799H91.1709C91.19 21.9046 91.4263 22.4589 91.8804 22.8411C92.2924 23.1829 92.8253 23.3541 93.4797 23.3541C94.2036 23.3541 94.8642 23.2387 95.4582 23.007L95.7135 24.1385C95.0194 24.4412 94.1998 24.5918 93.2541 24.5918C92.1166 24.5918 91.2237 24.257 90.5738 23.588C89.9256 22.9191 89.6006 22.0208 89.6006 20.894C89.6006 19.7878 89.9026 18.8665 90.5073 18.1319C91.1403 17.3475 91.9958 16.9553 93.0722 16.9553C94.1295 16.9553 94.9299 17.3475 95.4735 18.1319C95.9039 18.7549 96.1202 19.5255 96.1202 20.4406ZM94.566 20.0179C94.5767 19.5347 94.4705 19.1173 94.2495 18.7649C93.9674 18.3115 93.534 18.0852 92.9506 18.0852C92.4178 18.0852 91.9843 18.3062 91.6533 18.7496C91.3819 19.102 91.2206 19.5248 91.1709 20.0171H94.566V20.0179Z" fill="white"/>
<path d="M38.8402 6.79009C38.8402 6.5593 38.753 6.37561 38.5788 6.23902C38.4045 6.10242 38.1678 6.03413 37.8687 6.03413C37.612 6.03413 37.3977 6.10242 37.2258 6.23902C37.0539 6.37325 36.9679 6.54752 36.9679 6.76183H36.0777C36.0777 6.48158 36.1554 6.23195 36.3109 6.01293C36.4663 5.79392 36.6818 5.62435 36.9573 5.50425C37.2329 5.38179 37.5367 5.32056 37.8687 5.32056C38.4575 5.32056 38.9143 5.44891 39.2393 5.7056C39.5667 5.9623 39.7304 6.32144 39.7304 6.78303C39.7304 7.01617 39.6597 7.23048 39.5184 7.42595C39.3771 7.62141 39.1793 7.77567 38.9249 7.88871C39.2123 7.98762 39.4313 8.13834 39.582 8.34087C39.7351 8.54105 39.8116 8.79068 39.8116 9.08977C39.8116 9.55135 39.635 9.91874 39.2817 10.1919C38.9285 10.4627 38.4575 10.5982 37.8687 10.5982C37.506 10.5982 37.1775 10.5334 36.8831 10.4039C36.5911 10.2743 36.3709 10.0977 36.2226 9.87399C36.0765 9.65026 36.0035 9.39357 36.0035 9.1039H36.8937C36.8937 9.32527 36.9856 9.5125 37.1693 9.66557C37.353 9.81629 37.5861 9.89165 37.8687 9.89165C38.1843 9.89165 38.4375 9.81747 38.6282 9.6691C38.8213 9.52074 38.9179 9.32763 38.9179 9.08977C38.9179 8.8001 38.8331 8.5905 38.6635 8.46098C38.4963 8.3291 38.2502 8.26316 37.9252 8.26316H37.3212V7.55665H37.8934C38.5246 7.55665 38.8402 7.30113 38.8402 6.79009Z" fill="white"/>
<path d="M43.2043 10.531C43.1666 10.458 43.1336 10.3391 43.1053 10.1743C42.8322 10.4592 42.4977 10.6017 42.1021 10.6017C41.7182 10.6017 41.405 10.4922 41.1625 10.2732C40.9199 10.0542 40.7986 9.78332 40.7986 9.46069C40.7986 9.05327 40.9493 8.74123 41.2508 8.52456C41.5546 8.30555 41.9879 8.19604 42.5507 8.19604H43.0771V7.94523C43.0771 7.74741 43.0217 7.58962 42.9111 7.47187C42.8004 7.35176 42.632 7.29171 42.4059 7.29171C42.2104 7.29171 42.0503 7.34117 41.9255 7.44008C41.8007 7.53663 41.7383 7.66027 41.7383 7.81099H40.8798C40.8798 7.6014 40.9493 7.40593 41.0883 7.22459C41.2272 7.0409 41.4156 6.89724 41.6535 6.79362C41.8937 6.69 42.161 6.63819 42.4554 6.63819C42.9028 6.63819 43.2596 6.75123 43.5257 6.97731C43.7918 7.20104 43.9284 7.51661 43.9355 7.92403V9.64791C43.9355 9.99174 43.9838 10.2661 44.0803 10.471V10.531H43.2043ZM42.2611 9.91285C42.4306 9.91285 42.5896 9.87164 42.738 9.78921C42.8887 9.70678 43.0017 9.5961 43.0771 9.45715V8.73652H42.6143C42.2964 8.73652 42.0574 8.79186 41.8972 8.90254C41.7371 9.01323 41.657 9.16984 41.657 9.37237C41.657 9.53722 41.7112 9.6691 41.8195 9.76802C41.9302 9.86457 42.0774 9.91285 42.2611 9.91285Z" fill="white"/>
<path d="M45.2616 10.531V6.70884H46.8124C47.3352 6.70884 47.7332 6.80069 48.0064 6.98438C48.2796 7.16572 48.4162 7.42712 48.4162 7.7686C48.4162 7.94523 48.3608 8.10419 48.2501 8.24549C48.1418 8.38444 47.9805 8.49159 47.7662 8.56695C48.0158 8.61876 48.2136 8.72356 48.3596 8.88135C48.5056 9.03914 48.5786 9.22518 48.5786 9.43949C48.5786 9.7951 48.4468 10.0659 48.183 10.252C47.9216 10.438 47.5448 10.531 47.0526 10.531H45.2616ZM46.12 8.90254V9.8528H47.0597C47.5001 9.8528 47.7202 9.69501 47.7202 9.37944C47.7202 9.06151 47.4965 8.90254 47.0491 8.90254H46.12ZM46.12 8.28788H46.8265C47.314 8.28788 47.5577 8.14423 47.5577 7.85692C47.5577 7.55547 47.327 7.40004 46.8654 7.39062H46.12V8.28788Z" fill="white"/>
<path d="M51.9678 10.531C51.9301 10.458 51.8971 10.3391 51.8689 10.1743C51.5957 10.4592 51.2613 10.6017 50.8656 10.6017C50.4817 10.6017 50.1685 10.4922 49.926 10.2732C49.6834 10.0542 49.5621 9.78332 49.5621 9.46069C49.5621 9.05327 49.7128 8.74123 50.0143 8.52456C50.3181 8.30555 50.7514 8.19604 51.3142 8.19604H51.8406V7.94523C51.8406 7.74741 51.7852 7.58962 51.6746 7.47187C51.5639 7.35176 51.3955 7.29171 51.1694 7.29171C50.9739 7.29171 50.8138 7.34117 50.689 7.44008C50.5642 7.53663 50.5018 7.66027 50.5018 7.81099H49.6434C49.6434 7.6014 49.7128 7.40593 49.8518 7.22459C49.9907 7.0409 50.1791 6.89724 50.417 6.79362C50.6572 6.69 50.9245 6.63819 51.2189 6.63819C51.6663 6.63819 52.0231 6.75123 52.2892 6.97731C52.5553 7.20104 52.6919 7.51661 52.699 7.92403V9.64791C52.699 9.99174 52.7473 10.2661 52.8438 10.471V10.531H51.9678ZM51.0246 9.91285C51.1941 9.91285 51.3531 9.87164 51.5015 9.78921C51.6522 9.70678 51.7652 9.5961 51.8406 9.45715V8.73652H51.3778C51.0599 8.73652 50.8209 8.79186 50.6607 8.90254C50.5006 9.01323 50.4205 9.16984 50.4205 9.37237C50.4205 9.53722 50.4747 9.6691 50.583 9.76802C50.6937 9.86457 50.8409 9.91285 51.0246 9.91285Z" fill="white"/>
<path d="M57.1973 10.531H56.3389V8.98733H54.8517V10.531H53.9933V6.70884H54.8517V8.30201H56.3389V6.70884H57.1973V10.531Z" fill="white"/>
<path d="M61.4837 7.39062H60.2438V10.531H59.3854V7.39062H58.1596V6.70884H61.4837V7.39062Z" fill="white"/>
<path d="M64.6467 10.531C64.609 10.458 64.5761 10.3391 64.5478 10.1743C64.2746 10.4592 63.9402 10.6017 63.5446 10.6017C63.1607 10.6017 62.8475 10.4922 62.6049 10.2732C62.3624 10.0542 62.2411 9.78332 62.2411 9.46069C62.2411 9.05327 62.3918 8.74123 62.6932 8.52456C62.997 8.30555 63.4304 8.19604 63.9932 8.19604H64.5196V7.94523C64.5196 7.74741 64.4642 7.58962 64.3535 7.47187C64.2428 7.35176 64.0745 7.29171 63.8484 7.29171C63.6529 7.29171 63.4928 7.34117 63.368 7.44008C63.2431 7.53663 63.1807 7.66027 63.1807 7.81099H62.3223C62.3223 7.6014 62.3918 7.40593 62.5307 7.22459C62.6697 7.0409 62.8581 6.89724 63.0959 6.79362C63.3362 6.69 63.6035 6.63819 63.8978 6.63819C64.3453 6.63819 64.7021 6.75123 64.9682 6.97731C65.2343 7.20104 65.3709 7.51661 65.378 7.92403V9.64791C65.378 9.99174 65.4262 10.2661 65.5228 10.471V10.531H64.6467ZM63.7035 9.91285C63.8731 9.91285 64.0321 9.87164 64.1804 9.78921C64.3312 9.70678 64.4442 9.5961 64.5196 9.45715V8.73652H64.0568C63.7389 8.73652 63.4998 8.79186 63.3397 8.90254C63.1796 9.01323 63.0995 9.16984 63.0995 9.37237C63.0995 9.53722 63.1536 9.6691 63.262 9.76802C63.3727 9.86457 63.5198 9.91285 63.7035 9.91285Z" fill="white"/>
<path d="M70.0035 8.99439H69.5478V10.531H68.6894V8.99439H68.2372L67.3576 10.531H66.3049L67.5731 8.54223L66.372 6.70884H67.4212L68.2866 8.21017H68.6894V6.70884H69.5478V8.21017H69.954L70.823 6.70884H71.8722L70.6746 8.53163L71.9499 10.531H70.8831L70.0035 8.99439Z" fill="white"/>
<path d="M75.2295 6.70884H76.0844V10.531H75.2295V7.98055L73.7317 10.531H72.8768V6.70884H73.7317V9.25933L75.2295 6.70884Z" fill="white"/>
<path d="M80.3672 7.39062H79.1273V10.531H78.2689V7.39062H77.0431V6.70884H80.3672V7.39062Z" fill="white"/>
<path d="M83.6892 6.70884H84.5441V10.531H83.6892V7.98055L82.1914 10.531H81.3365V6.70884H82.1914V9.25933L83.6892 6.70884Z" fill="white"/>
<path d="M90.8772 7.75447C90.8772 7.92403 90.8254 8.08064 90.7218 8.2243C90.6205 8.3656 90.4768 8.47864 90.2908 8.56342C90.7288 8.7165 90.9478 9.01205 90.9478 9.45009C90.9478 9.80099 90.8054 10.0812 90.5204 10.2908C90.2355 10.4981 89.8539 10.6017 89.3759 10.6017C89.0838 10.6017 88.8177 10.5534 88.5775 10.4569C88.3373 10.3579 88.1501 10.219 88.0158 10.04C87.8816 9.85868 87.8145 9.64438 87.8145 9.3971H88.6694C88.6694 9.55253 88.7388 9.68323 88.8778 9.78921C89.0167 9.89283 89.1922 9.94464 89.4041 9.94464C89.6137 9.94464 89.7798 9.89636 89.9022 9.79981C90.027 9.7009 90.0894 9.57255 90.0894 9.41476C90.0894 9.22872 90.0353 9.09448 89.9269 9.01205C89.8186 8.92963 89.6514 8.88841 89.4253 8.88841H88.8107V8.27022H89.4465C89.8304 8.26551 90.0223 8.10772 90.0223 7.79686C90.0223 7.64143 89.967 7.52015 89.8563 7.43301C89.7456 7.34588 89.5937 7.30231 89.4006 7.30231C89.2122 7.30231 89.0532 7.34941 88.9237 7.44361C88.7942 7.53545 88.7294 7.65203 88.7294 7.79333H87.8745C87.8745 7.45656 88.0158 7.18102 88.2985 6.96672C88.5811 6.75005 88.9402 6.64172 89.3759 6.64172C89.8492 6.64172 90.2178 6.73828 90.4816 6.93139C90.7453 7.1245 90.8772 7.39886 90.8772 7.75447Z" fill="white"/>
</svg>
