<svg width="90" height="28" viewBox="0 0 90 28" fill="none" xmlns="http://www.w3.org/2000/svg">
<g clip-path="url(#clip0_40_1786)">
<mask id="mask0_40_1786" style="mask-type:luminance" maskUnits="userSpaceOnUse" x="0" y="0" width="90" height="28">
<path d="M90 0H0V28H90V0Z" fill="white"/>
</mask>
<g mask="url(#mask0_40_1786)">
<path d="M35.2755 13.1896C35.9526 12.8046 36.4949 12.3252 36.8898 11.7599C37.3397 11.1163 37.5683 10.3812 37.5683 9.57617C37.5683 8.06906 37.0057 6.89275 35.8969 6.07928C34.8015 5.27524 33.2941 4.86804 31.4154 4.86804H24.6222V22.3251H31.6868C33.6654 22.3251 35.2495 21.8645 36.395 20.9553C37.5494 20.0385 38.1356 18.7546 38.1356 17.1384C38.1356 16.1547 37.86 15.3082 37.3172 14.6231C36.83 14.0106 36.1439 13.5288 35.2755 13.1896ZM28.2985 8.01433H31.12C32.0049 8.01433 32.673 8.18609 33.107 8.52393C33.5358 8.85753 33.7441 9.29591 33.7441 9.86352C33.7441 10.4311 33.5358 10.8916 33.107 11.2267C32.673 11.5645 32.0049 11.7363 31.12 11.7363H28.2985V8.01433ZM33.6102 18.5871C33.1212 18.9796 32.3743 19.1783 31.3909 19.1783H28.2985V14.9061H31.3909C32.3738 14.9061 33.1216 15.0982 33.6126 15.4752C34.0994 15.8513 34.3359 16.3477 34.3359 16.9946C34.3359 17.675 34.0984 18.1954 33.6102 18.5871Z" fill="#00E0FF"/>
<path d="M43.1022 9.27081H39.4015V22.3241H43.1022V9.27081Z" fill="#00E0FF"/>
<path d="M79.6545 11.2342C79.0688 10.5359 78.3347 9.98847 77.4724 9.60679C76.6111 9.22555 75.6423 9.03113 74.5944 9.03113C73.3099 9.03113 72.1512 9.3232 71.1495 9.89887C70.1453 10.4764 69.3485 11.2786 68.7803 12.2846C68.212 13.2896 67.9241 14.456 67.9241 15.7503C67.9241 17.0446 68.2035 18.2878 68.7543 19.3084C69.3066 20.3324 70.1006 21.1354 71.1136 21.6975C72.1248 22.2561 73.3127 22.5397 74.6438 22.5397C76.2779 22.5397 77.6651 22.1282 78.7677 21.3162C79.8297 20.5348 80.5601 19.4326 80.9578 18.0529H77.2321C77.0361 18.5223 76.76 18.922 76.3647 19.2037C75.8972 19.5359 75.2936 19.7044 74.5698 19.7044C73.9422 19.7044 73.4045 19.5515 72.9716 19.2504C72.5366 18.9494 72.2045 18.5044 71.9863 17.9265C71.8553 17.5829 71.7624 17.188 71.7078 16.7487H81.0228L81.0412 16.6326C81.2075 15.5799 81.1656 14.5824 80.915 13.668C80.6638 12.7512 80.2397 11.9325 79.6545 11.2342ZM71.7667 14.3319C71.8237 14.0662 71.9005 13.7897 71.9981 13.5377C72.2252 12.9522 72.5531 12.5016 72.9734 12.2006C73.3919 11.8995 73.9125 11.7476 74.5213 11.7476C75.2841 11.7476 75.9104 11.9953 76.3825 12.4827C76.8301 12.9465 77.0841 13.5803 77.1383 14.3319H71.7667Z" fill="#00E0FF"/>
<path d="M43.18 4.86761H39.3246V8.0139H43.18V4.86761Z" fill="#00E0FF"/>
<path d="M63.4459 10.752C63.0081 10.2253 62.4951 9.81723 61.9164 9.53504C61.2256 9.20053 60.4175 9.03113 59.5143 9.03113C58.4084 9.03113 57.417 9.3043 56.5689 9.84225C55.7216 10.3797 55.0497 11.1394 54.5723 12.0986C54.0969 13.0555 53.8552 14.179 53.8552 15.4393C53.8552 16.6996 54.1091 17.7571 54.6105 18.7205C55.1129 19.6874 55.8093 20.4574 56.68 21.0104C57.5527 21.5649 58.5478 21.8461 59.6382 21.8461C60.4614 21.8461 61.2134 21.6677 61.8721 21.3153C62.3937 21.0364 62.8305 20.6674 63.1749 20.2168V21.638C63.1749 22.5189 62.9437 23.1951 62.4889 23.6457C62.0328 24.0964 61.3392 24.3238 60.427 24.3238C59.641 24.3238 59.0228 24.1454 58.5903 23.7929C58.2364 23.5046 57.9272 23.1262 57.8552 22.325H54.2873C54.3203 23.4461 54.6491 24.2015 55.1133 24.8636C55.634 25.6053 56.3662 26.1852 57.2917 26.5858C58.2081 26.9817 59.2716 27.1827 60.452 27.1827C62.4333 27.1827 64.0109 26.684 65.1394 25.7015C66.275 24.7135 66.8508 23.33 66.8508 21.5904V9.27079H63.4459V10.752ZM62.7942 17.1734C62.5596 17.6585 62.2284 18.0387 61.8085 18.302C61.3892 18.5653 60.8831 18.6994 60.3035 18.6994C59.4657 18.6994 58.8146 18.4138 58.3113 17.8259C57.81 17.2413 57.556 16.4382 57.556 15.4388C57.556 14.4394 57.81 13.6363 58.3113 13.0508C58.8079 12.4709 59.4785 12.1775 60.3035 12.1775C61.1285 12.1775 61.8575 12.4751 62.3702 13.064C62.8876 13.6576 63.15 14.465 63.15 15.4619C63.15 16.108 63.0303 16.6835 62.7942 17.1734Z" fill="#00E0FF"/>
<path d="M90.0009 12.3931V9.27141H87.33V4.86761H83.6538V9.27141H81.3723V12.3931H83.6538V17.5032C83.6538 20.3443 84.2126 22.4322 87.6958 22.3675L89.8829 22.3247V19.3978H88.7977C87.2494 19.3978 87.3357 18.4936 87.3357 16.8149L87.3296 12.3931H90.0009Z" fill="#00E0FF"/>
<path d="M52.9562 12.3929V9.27115H50.2849V4.8674H46.6088V9.27115H44.3272V12.3929H46.6088V17.5031C46.6088 20.3441 47.1675 22.432 50.6511 22.3674L52.8379 22.3244V19.3975H51.7527C50.2044 19.3975 50.2906 18.4935 50.2906 16.8146L50.2845 12.3929H52.9562Z" fill="#00E0FF"/>
<path d="M9.22621 8.0139H14.7774L20.4562 13.6643C20.8256 14.0319 20.8275 14.6297 20.46 14.9992L13.1772 22.3289H7.45874L9.18759 20.6458L15.535 14.3296L9.26815 8.01343" fill="#00E0FF"/>
<path d="M11.5073 14.3154H5.95611L0.277268 8.66505C-0.0921487 8.29748 -0.0940335 7.69964 0.273499 7.33018L7.55629 0H13.2747L11.5459 1.68309L5.19843 7.99927L11.4654 14.3154" fill="#00E0FF"/>
</g>
</g>
<defs>
<clipPath id="clip0_40_1786">
<rect width="90" height="28" fill="white"/>
</clipPath>
</defs>
</svg>
