<svg width="109" height="33" viewBox="0 0 109 33" fill="none" xmlns="http://www.w3.org/2000/svg">
<path d="M104.306 -0.00683594H4.01178C1.79614 -0.00683594 0 1.7893 0 4.00495V28.0756C0 30.2913 1.79614 32.0874 4.01178 32.0874H104.306C106.522 32.0874 108.318 30.2913 108.318 28.0756V4.00495C108.318 1.7893 106.522 -0.00683594 104.306 -0.00683594Z" fill="black"/>
<path d="M104.306 0.635049C105.2 0.635049 106.057 0.990091 106.689 1.62207C107.321 2.25405 107.676 3.11119 107.676 4.00495V28.0756C107.676 28.9694 107.321 29.8265 106.689 30.4585C106.057 31.0905 105.2 31.4455 104.306 31.4455H4.01178C3.11803 31.4455 2.26088 31.0905 1.62891 30.4585C0.996927 29.8265 0.641885 28.9694 0.641885 28.0756V4.00495C0.641885 3.11119 0.996927 2.25405 1.62891 1.62207C2.26088 0.990091 3.11803 0.635049 4.01178 0.635049H104.306ZM104.306 -0.00683594H4.01178C2.94779 -0.00683594 1.92738 0.415833 1.17502 1.16819C0.422669 1.92054 0 2.94096 0 4.00495V28.0756C0 29.1396 0.422669 30.16 1.17502 30.9124C1.92738 31.6648 2.94779 32.0874 4.01178 32.0874H104.306C105.37 32.0874 106.391 31.6648 107.143 30.9124C107.895 30.16 108.318 29.1396 108.318 28.0756V4.00495C108.318 2.94096 107.895 1.92054 107.143 1.16819C106.391 0.415833 105.37 -0.00683594 104.306 -0.00683594Z" fill="#A6A6A6"/>
<path d="M54.6726 17.4444C53.9989 17.4475 53.3412 17.6502 52.7825 18.0268C52.2239 18.4035 51.7893 18.9371 51.5337 19.5605C51.278 20.1839 51.2128 20.869 51.3462 21.5294C51.4795 22.1898 51.8056 22.7959 52.2831 23.2712C52.7606 23.7465 53.3683 24.0697 54.0293 24.2C54.6903 24.3303 55.3752 24.2618 55.9973 24.0033C56.6195 23.7447 57.1511 23.3076 57.5251 22.7472C57.8991 22.1868 58.0987 21.5281 58.0987 20.8544C58.1052 20.4034 58.021 19.9557 57.8509 19.538C57.6808 19.1202 57.4285 18.741 57.1088 18.4228C56.7891 18.1047 56.4087 17.8541 55.9902 17.686C55.5717 17.5179 55.1236 17.4357 54.6726 17.4444ZM54.6726 22.9245C54.2583 22.9534 53.8448 22.8571 53.4859 22.6479C53.1271 22.4388 52.8394 22.1266 52.6603 21.7518C52.4813 21.377 52.4191 20.957 52.4819 20.5464C52.5448 20.1358 52.7296 19.7536 53.0125 19.4495C53.2954 19.1454 53.6633 18.9334 54.0683 18.8411C54.4733 18.7488 54.8966 18.7805 55.2834 18.932C55.6701 19.0835 56.0023 19.3479 56.2368 19.6907C56.4713 20.0336 56.5973 20.439 56.5983 20.8544C56.6112 21.1176 56.5713 21.3807 56.4809 21.6282C56.3906 21.8757 56.2515 22.1026 56.0721 22.2955C55.8926 22.4885 55.6763 22.6435 55.436 22.7515C55.1956 22.8595 54.9361 22.9183 54.6726 22.9245ZM47.2027 17.4444C46.5286 17.4459 45.8701 17.6473 45.3104 18.0229C44.7507 18.3986 44.3148 18.9317 44.058 19.555C43.8011 20.1782 43.7347 20.8636 43.8672 21.5245C43.9997 22.1855 44.3251 22.7923 44.8023 23.2684C45.2795 23.7445 45.8871 24.0685 46.5484 24.1994C47.2097 24.3304 47.8949 24.2624 48.5175 24.004C49.1402 23.7457 49.6723 23.3086 50.0466 22.748C50.4209 22.1874 50.6207 21.5285 50.6207 20.8544C50.6273 20.4034 50.543 19.9557 50.3729 19.538C50.2029 19.1202 49.9505 18.741 49.6308 18.4228C49.3112 18.1047 48.9307 17.8541 48.5122 17.686C48.0937 17.5179 47.6456 17.4357 47.1947 17.4444H47.2027ZM47.2027 22.9245C46.7881 22.9551 46.374 22.8602 46.0141 22.6521C45.6542 22.444 45.3654 22.1324 45.1851 21.7579C45.0047 21.3834 44.9414 20.9632 45.0032 20.5521C45.065 20.1411 45.2492 19.7582 45.5316 19.4532C45.8141 19.1483 46.1819 18.9354 46.587 18.8424C46.9922 18.7494 47.4159 18.7805 47.8031 18.9317C48.1904 19.0829 48.5231 19.3471 48.758 19.69C48.993 20.033 49.1192 20.4387 49.1203 20.8544C49.1333 21.1176 49.0933 21.3807 49.003 21.6282C48.9126 21.8757 48.7736 22.1026 48.5941 22.2955C48.4146 22.4885 48.1983 22.6435 47.958 22.7515C47.7176 22.8595 47.4581 22.9183 47.1947 22.9245H47.2027ZM38.3046 18.4954V19.9397H41.7707C41.7164 20.6199 41.4336 21.2618 40.9684 21.761C40.6216 22.1143 40.2047 22.391 39.7446 22.5734C39.2844 22.7558 38.7911 22.8398 38.2965 22.8201C37.2751 22.8201 36.2955 22.4144 35.5733 21.6921C34.851 20.9699 34.4452 19.9903 34.4452 18.9688C34.4452 17.9474 34.851 16.9678 35.5733 16.2455C36.2955 15.5233 37.2751 15.1175 38.2965 15.1175C39.2736 15.1016 40.2172 15.4738 40.9202 16.1526L41.9392 15.1336C41.4646 14.653 40.8984 14.2725 40.274 14.0148C39.6497 13.7571 38.98 13.6273 38.3046 13.6332C37.5913 13.6054 36.8797 13.7219 36.2125 13.9757C35.5453 14.2296 34.9362 14.6155 34.4218 15.1103C33.9073 15.6052 33.498 16.1988 33.2184 16.8556C32.9388 17.5124 32.7947 18.2189 32.7947 18.9327C32.7947 19.6466 32.9388 20.3531 33.2184 21.0099C33.498 21.6667 33.9073 22.2603 34.4218 22.7551C34.9362 23.25 35.5453 23.6359 36.2125 23.8897C36.8797 24.1435 37.5913 24.2601 38.3046 24.2323C38.9913 24.2633 39.6768 24.1469 40.3148 23.8909C40.9528 23.6348 41.5286 23.2451 42.0034 22.7479C42.844 21.8244 43.2928 20.6103 43.2551 19.362C43.2577 19.0579 43.2308 18.7542 43.1749 18.4553L38.3046 18.4954ZM74.6593 19.6187C74.4501 19.0031 74.0588 18.4656 73.5372 18.0773C73.0157 17.689 72.3885 17.4683 71.7388 17.4444C71.2999 17.4435 70.8655 17.5327 70.4624 17.7064C70.0593 17.88 69.6962 18.1345 69.3954 18.4541C69.0946 18.7738 68.8625 19.1516 68.7136 19.5645C68.5646 19.9773 68.5019 20.4163 68.5293 20.8544C68.5196 21.3028 68.6003 21.7486 68.7667 22.1652C68.9331 22.5817 69.1818 22.9605 69.4978 23.2788C69.8139 23.597 70.1908 23.8484 70.6062 24.0177C71.0215 24.1871 71.4668 24.271 71.9153 24.2644C72.4765 24.2674 73.0298 24.1312 73.5255 23.868C74.0211 23.6047 74.4438 23.2226 74.7556 22.756L73.5922 21.9536C73.4186 22.2431 73.1727 22.4825 72.8788 22.6485C72.5848 22.8144 72.2528 22.9012 71.9153 22.9004C71.5677 22.9136 71.2242 22.822 70.9295 22.6374C70.6347 22.4528 70.4023 22.1838 70.2624 21.8653L74.8278 19.9798L74.6593 19.6187ZM70.0057 20.7581C69.9894 20.5099 70.0228 20.261 70.104 20.0259C70.1851 19.7908 70.3124 19.5742 70.4782 19.3889C70.6441 19.2036 70.8453 19.0533 71.07 18.9467C71.2947 18.8401 71.5384 18.7795 71.7869 18.7682C72.0457 18.7512 72.3038 18.8105 72.5292 18.9389C72.7546 19.0673 72.9373 19.259 73.0546 19.4904L70.0057 20.7581ZM66.2988 24.0638H67.7992V14.0343H66.2988V24.0638ZM63.8436 18.2066H63.7874C63.5613 17.9538 63.2843 17.7516 62.9745 17.6133C62.6648 17.475 62.3293 17.4038 61.9901 17.4042C61.1133 17.4468 60.2864 17.825 59.6809 18.4606C59.0754 19.0962 58.7376 19.9404 58.7376 20.8183C58.7376 21.6961 59.0754 22.5403 59.6809 23.1759C60.2864 23.8115 61.1133 24.1898 61.9901 24.2323C62.3301 24.238 62.6673 24.1691 62.9778 24.0305C63.2883 23.8919 63.5647 23.6869 63.7874 23.4299H63.8355V23.9194C63.8355 25.2272 63.1375 25.9253 62.0142 25.9253C61.6401 25.9165 61.277 25.7966 60.9712 25.5809C60.6655 25.3651 60.4308 25.0633 60.2972 24.7137L58.9893 25.2593C59.2355 25.8582 59.655 26.3698 60.1939 26.7286C60.7329 27.0875 61.3667 27.2771 62.0142 27.2732C63.7714 27.2732 65.2236 26.2382 65.2236 23.7188V17.6449H63.8436V18.2066ZM62.1265 22.9245C61.609 22.8788 61.1273 22.641 60.7764 22.2578C60.4255 21.8747 60.2309 21.3739 60.2309 20.8544C60.2309 20.3348 60.4255 19.8341 60.7764 19.4509C61.1273 19.0677 61.609 18.8299 62.1265 18.7843C62.3831 18.7975 62.6345 18.8619 62.8659 18.9737C63.0972 19.0855 63.3038 19.2425 63.4736 19.4354C63.6433 19.6283 63.7727 19.8532 63.8542 20.0969C63.9356 20.3406 63.9675 20.5982 63.9479 20.8544C63.9698 21.1117 63.9392 21.3708 63.8581 21.6159C63.7771 21.8611 63.6471 22.0873 63.4761 22.2808C63.3051 22.4743 63.0966 22.6311 62.8632 22.7417C62.6299 22.8524 62.3766 22.9145 62.1185 22.9245H62.1265ZM81.688 14.0343H78.1014V24.0638H79.6019V20.2606H81.696C82.1236 20.2913 82.553 20.2336 82.9573 20.0911C83.3617 19.9486 83.7323 19.7243 84.0461 19.4322C84.3599 19.1401 84.6102 18.7865 84.7814 18.3934C84.9525 18.0003 85.0408 17.5762 85.0408 17.1475C85.0408 16.7188 84.9525 16.2946 84.7814 15.9016C84.6102 15.5085 84.3599 15.1549 84.0461 14.8628C83.7323 14.5707 83.3617 14.3464 82.9573 14.2039C82.553 14.0613 82.1236 14.0036 81.696 14.0343H81.688ZM81.688 18.8485H79.5938V15.4304H81.7201C82.1765 15.4304 82.6143 15.6118 82.937 15.9345C83.2598 16.2573 83.4411 16.695 83.4411 17.1515C83.4411 17.6079 83.2598 18.0457 82.937 18.3685C82.6143 18.6912 82.1765 18.8726 81.7201 18.8726L81.688 18.8485ZM90.9391 17.4042C90.3929 17.3716 89.849 17.4992 89.3744 17.7715C88.8997 18.0438 88.5149 18.4488 88.2673 18.9367L89.5992 19.4904C89.7305 19.2483 89.9294 19.0497 90.1716 18.9186C90.4137 18.7876 90.6888 18.7298 90.9632 18.7522C91.1537 18.73 91.3467 18.7459 91.5309 18.799C91.7152 18.8521 91.887 18.9414 92.0364 19.0617C92.1858 19.1819 92.3097 19.3307 92.401 19.4994C92.4922 19.668 92.549 19.8532 92.5679 20.044V20.1483C92.086 19.8931 91.5486 19.7609 91.0033 19.7632C89.5671 19.7632 88.1149 20.5655 88.1149 22.0178C88.129 22.3274 88.2051 22.6311 88.3387 22.9109C88.4723 23.1906 88.6606 23.4407 88.8924 23.6464C89.1243 23.8521 89.3951 24.0092 89.6888 24.1085C89.9824 24.2078 90.293 24.2471 90.6022 24.2243C90.98 24.2514 91.3582 24.1763 91.697 24.0069C92.0358 23.8375 92.3228 23.58 92.5278 23.2614H92.576V24.0638H94.0202V20.2045C94.0202 18.4473 92.6883 17.4283 90.9793 17.4283L90.9391 17.4042ZM90.7546 22.9004C90.2652 22.9004 89.5832 22.6517 89.5832 22.0499C89.5832 21.2475 90.4337 20.9827 91.1879 20.9827C91.6645 20.971 92.1356 21.0874 92.5519 21.3197C92.5017 21.7541 92.2963 22.1558 91.9734 22.4506C91.6505 22.7455 91.2319 22.9138 90.7947 22.9245L90.7546 22.9004ZM99.2837 17.6449L97.5666 21.9937H97.5185L95.7373 17.6449H94.1325L96.8044 23.7268L95.2799 27.1047H96.8445L100.953 17.6449H99.2837ZM85.796 24.0638H87.2965V14.0343H85.796V24.0638Z" fill="white"/>
<path d="M34.7582 10.5602C34.4219 10.5545 34.0949 10.4483 33.8194 10.2553C33.5059 10.0428 33.2805 9.72331 33.1856 9.35662L33.7713 9.10789C33.8299 9.34376 33.9586 9.55635 34.1404 9.71768C34.3108 9.86114 34.5274 9.93809 34.7502 9.93432C34.9978 9.93747 35.2379 9.84888 35.4242 9.68559C35.5122 9.61026 35.5829 9.51674 35.6314 9.41147C35.6799 9.30621 35.705 9.19169 35.705 9.0758C35.7028 8.96064 35.6759 8.84729 35.6261 8.74345C35.5763 8.63961 35.5046 8.54772 35.4161 8.47403C35.2214 8.30912 34.9732 8.22072 34.7181 8.2253H34.3009V7.62353H34.6699C34.8969 7.632 35.1193 7.55788 35.2958 7.41492C35.3773 7.34647 35.4421 7.26027 35.4852 7.16292C35.5283 7.06558 35.5486 6.95966 35.5445 6.85327C35.5489 6.75343 35.5294 6.65399 35.4875 6.56326C35.4456 6.47252 35.3826 6.39314 35.3038 6.33174C35.1312 6.20054 34.9188 6.13256 34.702 6.13917C34.5166 6.13464 34.3352 6.19452 34.189 6.30863C34.0427 6.42273 33.9404 6.58401 33.8997 6.76501L33.3059 6.51628C33.4067 6.24571 33.5785 6.00732 33.8034 5.82625C34.0666 5.61556 34.3972 5.50726 34.7341 5.52136C35.1266 5.51131 35.5091 5.64548 35.8093 5.89847C35.9469 6.01578 36.0566 6.16243 36.1302 6.32765C36.2038 6.49287 36.2394 6.67247 36.2345 6.85327C36.2415 7.06985 36.1842 7.28366 36.07 7.46781C35.9558 7.65197 35.7897 7.79826 35.5926 7.88831C35.8221 7.98336 36.0217 8.13859 36.1703 8.33763C36.3224 8.54413 36.4014 8.79536 36.395 9.05173C36.3994 9.25229 36.3591 9.45132 36.2773 9.63446C36.1954 9.81761 36.0739 9.98031 35.9216 10.1108C35.606 10.4046 35.1893 10.5655 34.7582 10.5602ZM36.7801 10.4238L38.6737 5.39298H39.4038L41.2974 10.4238H40.5833L40.1019 9.05975H37.9837L37.4942 10.4238H36.7801ZM38.2083 8.45798H39.8772L39.0749 6.18731L38.2083 8.45798ZM41.9473 10.4238V5.41705H43.7687C44.1461 5.41302 44.5107 5.55371 44.7877 5.81021C44.9273 5.93154 45.0386 6.08215 45.1134 6.25133C45.1883 6.42051 45.225 6.60411 45.2209 6.78908C45.2258 7.01428 45.1614 7.23555 45.0364 7.42294C44.9132 7.60611 44.7407 7.75074 44.5389 7.84017C44.7809 7.92042 44.9933 8.07133 45.1487 8.27344C45.3076 8.47728 45.3925 8.72909 45.3894 8.98754C45.3968 9.18581 45.3596 9.38321 45.2804 9.56515C45.2012 9.74708 45.0822 9.90889 44.9321 10.0386C44.6395 10.308 44.2546 10.4545 43.8569 10.4478L41.9473 10.4238ZM42.5892 7.55132H43.7606C43.8699 7.55605 43.9788 7.53698 44.08 7.49542C44.1811 7.45385 44.272 7.39079 44.3464 7.31061C44.4855 7.16949 44.5635 6.97925 44.5635 6.78106C44.5635 6.58286 44.4855 6.39263 44.3464 6.2515C44.276 6.17276 44.1893 6.1104 44.0922 6.06881C43.9952 6.02722 43.8902 6.00742 43.7847 6.01079H42.5812L42.5892 7.55132ZM42.5892 9.80594H43.889C44.0017 9.80782 44.1136 9.78593 44.2173 9.74169C44.3209 9.69745 44.4141 9.63186 44.4908 9.54919C44.5651 9.47422 44.624 9.3853 44.6639 9.28754C44.7038 9.18979 44.7241 9.08511 44.7235 8.97951C44.713 8.75888 44.6164 8.55116 44.4543 8.40109C44.2922 8.25101 44.0777 8.1706 43.8569 8.17716H42.5972L42.5892 9.80594ZM45.7344 10.4238L47.628 5.39298H48.3581L50.2276 10.4238H49.5135L49.0321 9.05975H46.9139L46.4245 10.4238H45.7344ZM47.1626 8.45798H48.8315L48.0292 6.18731L47.1626 8.45798ZM50.8775 10.4238V5.41705H51.5194V7.57539H54.0308V5.41705H54.6727V10.4238H54.0308V8.17716H51.5274V10.4238H50.8775ZM57.4248 10.4238H56.7829V6.01079H55.3627V5.39298H58.8128V6.01079H57.4248V10.4238ZM58.6604 10.4238L60.554 5.39298H61.2841L63.1777 10.4238H62.4636L61.9822 9.05975H59.8639L59.3745 10.4238H58.6604ZM60.0886 8.45798H61.7816L60.9792 6.18731L60.0886 8.45798ZM67.037 8.14506V10.4238H66.3951V8.14506L64.4133 10.4238H63.6109L65.7292 8.01669L63.6511 5.44914H64.4534L66.3791 7.85621V5.44914H67.021V7.85621L68.9466 5.44914H69.749L67.7431 8.01669L69.8613 10.4238H69.0028L67.053 8.12099L67.037 8.14506ZM74.3545 5.41705V10.4238H73.7126V6.32371L71.1531 10.4238H70.4791V5.41705H71.121V9.33255L73.5281 5.42507L74.3545 5.41705ZM77.0905 10.4238H76.4486V6.01079H75.0445V5.39298H78.4946V6.01079H77.0905V10.4238ZM83.0922 5.41705V10.4238H82.4503V6.32371L79.8907 10.4238H79.2168V5.41705H79.8587V9.33255L82.2657 5.42507L83.0922 5.41705ZM86.9675 10.5602C86.6312 10.5545 86.3042 10.4483 86.0288 10.2553C85.7152 10.0428 85.4898 9.72331 85.3949 9.35662L85.9806 9.10789C86.0393 9.34376 86.1679 9.55635 86.3497 9.71768C86.5202 9.86114 86.7368 9.93809 86.9595 9.93432C87.2072 9.93747 87.4473 9.84888 87.6335 9.68559C87.7216 9.61026 87.7923 9.51674 87.8407 9.41147C87.8892 9.30621 87.9143 9.19169 87.9143 9.0758C87.9122 8.96064 87.8853 8.84729 87.8354 8.74345C87.7856 8.63961 87.714 8.54772 87.6255 8.47403C87.4307 8.30912 87.1826 8.22072 86.9274 8.2253H86.5102V7.62353H86.8793C87.1063 7.632 87.3286 7.55788 87.5051 7.41492C87.5867 7.34647 87.6515 7.26027 87.6946 7.16292C87.7377 7.06558 87.758 6.95966 87.7538 6.85327C87.7583 6.75343 87.7387 6.65399 87.6969 6.56326C87.655 6.47252 87.592 6.39314 87.5131 6.33174C87.3405 6.20054 87.1281 6.13256 86.9114 6.13917C86.7259 6.13464 86.5446 6.19452 86.3983 6.30863C86.252 6.42273 86.1498 6.58401 86.109 6.76501L85.5153 6.51628C85.616 6.24571 85.7878 6.00732 86.0127 5.82625C86.2763 5.61621 86.6067 5.50799 86.9435 5.52136C87.3359 5.51131 87.7184 5.64548 88.0186 5.89847C88.1563 6.01578 88.2659 6.16243 88.3395 6.32765C88.4131 6.49287 88.4488 6.67247 88.4439 6.85327C88.4508 7.06985 88.3936 7.28366 88.2794 7.46781C88.1652 7.65197 87.9991 7.79826 87.802 7.88831C88.0315 7.98336 88.2311 8.13859 88.3797 8.33763C88.5317 8.54413 88.6108 8.79536 88.6043 9.05173C88.6087 9.25229 88.5685 9.45132 88.4866 9.63446C88.4048 9.81761 88.2833 9.98031 88.1309 10.1108C87.8153 10.4046 87.3987 10.5655 86.9675 10.5602Z" fill="white"/>
<path fill-rule="evenodd" clip-rule="evenodd" d="M38.6182 5.31274H39.4594L41.4133 10.504H40.5265L40.0451 9.13998H38.0401L37.5507 10.504H36.6642L38.6182 5.31274ZM38.7292 5.47322L36.8961 10.3435H37.4378L37.9272 8.97951H40.1587L40.6401 10.3435H41.1815L39.3483 5.47322H38.7292ZM47.5725 5.31274H48.4139L50.343 10.504H49.4568L48.9754 9.13998H46.9704L46.4809 10.504H45.6185L47.5725 5.31274ZM47.6835 5.47322L45.8504 10.3435H46.368L46.8574 8.97951H49.0889L49.5703 10.3435H50.1122L48.3024 5.47322H47.6835ZM55.2825 5.31274H58.8931V6.09103H57.505V10.504H56.7026V6.09103H55.2825V5.31274ZM55.4429 5.47322V5.93056H56.8631V10.3435H57.3445V5.93056H58.7326V5.47322H55.4429ZM60.4984 5.31274H61.3396L63.2936 10.504H62.4068L61.9254 9.13998H59.9204L59.4309 10.504H58.5445L60.4984 5.31274ZM60.6095 5.47322L58.7763 10.3435H59.318L59.8075 8.97951H62.0389L62.5203 10.3435H63.0617L61.2286 5.47322H60.6095ZM74.9643 5.31274H78.5749V6.09103H77.1708V10.504H76.3684V6.09103H74.9643V5.31274ZM75.1248 5.47322V5.93056H76.5289V10.3435H77.0103V5.93056H78.4144V5.47322H75.1248ZM74.4347 5.33603V10.504H73.6324V6.60376L71.1976 10.504H70.3989V5.33682H71.2012V9.04932L73.483 5.34527L74.4347 5.33603ZM83.1724 5.33603V10.504H82.37V6.60376L79.9352 10.504H79.1365V5.33682H79.9389V9.04932L82.2206 5.34527L83.1724 5.33603ZM44.7331 5.86907C44.4713 5.62651 44.1264 5.49347 43.7695 5.49728L43.7687 5.49729H42.0275V10.3445L43.8579 10.3676C44.235 10.374 44.6003 10.235 44.8777 9.9796L44.8796 9.97789C45.0206 9.85602 45.1325 9.70404 45.2068 9.53313C45.2812 9.36222 45.3162 9.17679 45.3092 8.99053L45.3091 8.98658C45.312 8.74633 45.2332 8.51226 45.0854 8.32277L45.0851 8.32235C44.9395 8.13295 44.7404 7.99153 44.5137 7.91633L44.3165 7.85095L44.5064 7.76681C44.6944 7.68353 44.855 7.54886 44.9697 7.3783C45.0855 7.20462 45.1452 6.99954 45.1407 6.79082L45.1406 6.7873C45.1445 6.61412 45.1102 6.44221 45.0401 6.2838C44.97 6.1254 44.8658 5.98438 44.735 5.87078L44.7331 5.86907ZM44.8412 5.75048C44.5495 5.48069 44.1656 5.33268 43.7682 5.33682H41.8671V10.503L43.8556 10.5281C43.8555 10.528 43.8556 10.5281 43.8556 10.5281C44.2733 10.5351 44.678 10.3813 44.9855 10.0985C45.1443 9.96105 45.2702 9.78973 45.354 9.59716C45.4377 9.4048 45.4772 9.19613 45.4697 8.9865C45.4725 8.71065 45.3817 8.44195 45.2122 8.22432C45.0831 8.05653 44.9171 7.92195 44.7279 7.83045C44.8765 7.73757 45.0045 7.61418 45.103 7.46772C45.2368 7.26714 45.306 7.03014 45.3012 6.7891C45.3012 6.78968 45.3012 6.79027 45.3011 6.79086L45.2209 6.78908L45.3011 6.78734C45.3012 6.78793 45.3012 6.78851 45.3012 6.7891C45.3053 6.59294 45.2662 6.39828 45.1868 6.21885C45.1073 6.03929 44.9894 5.87939 44.8412 5.75048ZM50.7973 5.33682H51.5997V7.49515H53.9506V5.33682H54.7529V10.504H53.9506V8.25739H51.6077V10.504H50.7973V5.33682ZM50.9578 5.49729V10.3435H51.4472V8.09692H54.111V10.3435H54.5924V5.49729H54.111V7.65563H51.4392V5.49729H50.9578ZM70.5593 5.49729V10.3435H71.1086L73.7928 6.04367V10.3435H74.2743V5.49807L73.5731 5.50488L71.0408 9.61578V5.49729H70.5593ZM79.297 5.49729V10.3435H79.8463L82.5305 6.04367V10.3435H83.0119V5.49807L82.3108 5.50488L79.7784 9.61578V5.49729H79.297ZM63.4829 5.36891H64.492L66.2988 7.62748V5.36891H67.1012V7.62748L68.908 5.36891H69.9135L67.8473 8.01364L70.0388 10.504H68.9656L67.1172 8.32097V10.504H66.3149V8.35958L64.4498 10.504H63.4334L65.6242 8.01452L63.4829 5.36891ZM63.8192 5.52938L65.8341 8.01885L63.7884 10.3435H64.3767L66.4027 8.01413L64.4148 5.52938H63.8192ZM66.4593 7.94899L66.4754 7.93054V10.3435H66.9568V8.12077L67.0454 7.98779L69.04 10.3435H69.6838L67.6389 8.01973L69.5845 5.52938H68.9852L66.9407 8.08495V5.52938H66.4593V7.94899ZM34.7308 5.60152C34.4133 5.58824 34.1017 5.69029 33.8536 5.88882C33.6601 6.0447 33.5079 6.24528 33.4098 6.4728L33.8472 6.65604C33.9024 6.49428 34.0037 6.35133 34.1396 6.24536C34.2999 6.1203 34.4985 6.05445 34.7018 6.05891C34.9361 6.05226 35.1657 6.12598 35.3523 6.26786L35.3531 6.26843C35.4421 6.3377 35.5131 6.42727 35.5604 6.52963C35.6071 6.63099 35.6292 6.74198 35.6248 6.85349C35.6288 6.97098 35.6062 7.08789 35.5586 7.19541C35.5105 7.30395 35.4383 7.40005 35.3474 7.47637L35.3463 7.47728C35.1551 7.63214 34.9143 7.71257 34.6685 7.70377H34.3811V8.14506H34.7174C34.9916 8.14031 35.2583 8.23538 35.4677 8.41258C35.565 8.49361 35.6437 8.59461 35.6984 8.70873C35.7533 8.82295 35.7829 8.94764 35.7852 9.07431L35.7852 9.07579C35.7852 9.20327 35.7576 9.32924 35.7043 9.44504C35.651 9.56068 35.5734 9.66343 35.4767 9.74624C35.2759 9.92213 35.0172 10.0177 34.7503 10.0146C34.5086 10.0184 34.2737 9.93475 34.0887 9.77907L34.0871 9.77771C33.9166 9.62638 33.7899 9.43275 33.7193 9.21715L33.2821 9.40281C33.381 9.72273 33.5861 10.0003 33.8644 10.1888L33.8655 10.1895C34.1278 10.3734 34.4391 10.4745 34.7593 10.4799C35.1698 10.485 35.5665 10.3318 35.8669 10.0521L35.8694 10.0499C36.0127 9.92705 36.127 9.77403 36.204 9.60172C36.2811 9.42941 36.3189 9.24216 36.3148 9.05347L36.3147 9.04971C36.3207 8.81123 36.2473 8.57753 36.1059 8.38541C35.9659 8.19805 35.778 8.05193 35.5619 7.96244L35.3917 7.89191L35.5593 7.81533C35.742 7.73186 35.896 7.59624 36.0019 7.42553C36.1077 7.25481 36.1608 7.05661 36.1543 6.85584L36.1542 6.8511C36.1587 6.68227 36.1256 6.51457 36.0569 6.36029C35.9882 6.20608 35.8859 6.0692 35.7574 5.95968C35.4723 5.71943 35.1089 5.59203 34.7362 5.60157L34.7308 5.60152ZM34.7348 5.44108C34.3795 5.42687 34.0309 5.54138 33.7533 5.76361C33.5171 5.95373 33.3365 6.20419 33.2307 6.48829L33.2038 6.56051L33.9569 6.87599L33.9779 6.78264C34.0146 6.61974 34.1066 6.47459 34.2383 6.37189C34.37 6.2692 34.5331 6.2153 34.7001 6.21938L34.7045 6.21937C34.9027 6.21332 35.0969 6.27544 35.2549 6.39533C35.3234 6.44882 35.3782 6.51792 35.4147 6.59688C35.4512 6.67598 35.4682 6.76268 35.4643 6.84971L35.4643 6.85637C35.468 6.95053 35.45 7.04428 35.4119 7.13043C35.3738 7.21638 35.3166 7.2925 35.2447 7.35301C35.0834 7.48346 34.8803 7.55108 34.6729 7.54335L34.2206 7.5433V8.30553H34.7181L34.7195 8.30552C34.9552 8.30129 35.1844 8.38295 35.3643 8.53526L35.3648 8.53569C35.4445 8.60202 35.5089 8.68472 35.5538 8.77817C35.5985 8.8714 35.6227 8.97315 35.6247 9.07654C35.6246 9.18059 35.6021 9.28339 35.5585 9.37791C35.5149 9.47265 35.4513 9.55682 35.372 9.62461L35.3713 9.62526C35.1999 9.77548 34.979 9.85699 34.7512 9.85409L34.7488 9.85409C34.5458 9.85753 34.3484 9.78752 34.1929 9.65697C34.0236 9.50648 33.9038 9.30834 33.8492 9.08853L33.8265 8.99729L33.0906 9.30979L33.1079 9.37673C33.2077 9.76211 33.4444 10.0979 33.7739 10.3213C34.0624 10.5234 34.4047 10.6345 34.7568 10.6404C35.2081 10.646 35.6445 10.4778 35.9751 10.1707C36.1358 10.0326 36.2641 9.86068 36.3505 9.6672C36.437 9.47379 36.4796 9.26366 36.4753 9.05186C36.4817 8.77834 36.3972 8.51039 36.235 8.29005L36.2346 8.28962C36.1096 8.12219 35.9505 7.98405 35.7685 7.88392C35.9177 7.78909 36.0443 7.66152 36.1382 7.5101C36.2604 7.31317 36.3218 7.08465 36.3148 6.85307C36.3196 6.66109 36.2816 6.47045 36.2035 6.29501C36.125 6.11885 36.0081 5.96249 35.8613 5.8374C35.5468 5.57234 35.1459 5.43122 34.7348 5.44108ZM86.9403 5.60153C86.6229 5.58893 86.3115 5.69087 86.0631 5.88875C85.8694 6.04464 85.7172 6.24524 85.6191 6.4728L86.0565 6.65604C86.1118 6.49428 86.2131 6.35133 86.3489 6.24536C86.5093 6.1203 86.7079 6.05445 86.9111 6.05891C87.1454 6.05226 87.375 6.12598 87.5617 6.26786L87.5624 6.26843C87.6514 6.3377 87.7225 6.42727 87.7697 6.52963C87.8165 6.63099 87.8386 6.74198 87.8341 6.85349C87.8382 6.971 87.8156 7.08788 87.7679 7.19541C87.7199 7.30395 87.6476 7.40005 87.5567 7.47637L87.5556 7.47727C87.3644 7.63213 87.1237 7.71257 86.8778 7.70377H86.5904V8.14506H86.9267C87.201 8.14031 87.4677 8.23539 87.6771 8.4126C87.7743 8.49362 87.853 8.59462 87.9078 8.70873C87.9626 8.82295 87.9922 8.94764 87.9945 9.07431L87.9946 9.07579C87.9946 9.20327 87.967 9.32924 87.9136 9.44504C87.8604 9.56068 87.7827 9.66343 87.686 9.74624C87.4852 9.92213 87.2266 10.0177 86.9597 10.0146C86.9601 10.0146 86.9605 10.0145 86.9609 10.0145L86.9595 9.93432L86.9585 10.0145C86.9589 10.0146 86.9593 10.0146 86.9597 10.0146C86.718 10.0184 86.483 9.93474 86.2981 9.77907L86.2965 9.77769C86.126 9.62636 85.9992 9.43275 85.9286 9.21715L86.012 9.18174L85.9806 9.10789L85.9028 9.12725C85.9103 9.15759 85.919 9.18758 85.9286 9.21715L85.4914 9.40281C85.4846 9.38091 85.4784 9.3588 85.4726 9.33652L85.3949 9.35662L85.4263 9.43047L85.4914 9.40281C85.5904 9.72273 85.7954 10.0003 86.0738 10.1888L86.0748 10.1895C86.3371 10.3734 86.6484 10.4745 86.9687 10.4799C87.3791 10.485 87.7758 10.3318 88.0763 10.0521L88.0787 10.0499C88.222 9.92705 88.3364 9.77403 88.4134 9.60172C88.4904 9.42941 88.5282 9.24216 88.5241 9.05347L88.524 9.04971C88.53 8.81127 88.4567 8.57762 88.3153 8.38552C88.1753 8.19811 87.9874 8.05195 87.7713 7.96244L87.601 7.89191L87.7686 7.81533C87.9514 7.73186 88.1053 7.59624 88.2112 7.42553C88.3171 7.25481 88.3701 7.05661 88.3637 6.85584L88.3635 6.8511C88.3681 6.68227 88.3349 6.51457 88.2662 6.36029C88.1975 6.20603 88.0951 6.0691 87.9666 5.95956C87.6815 5.71939 87.3182 5.59203 86.9455 5.60157L86.9403 5.60153ZM86.944 5.44108C86.5889 5.42761 86.2407 5.542 85.9627 5.7635C85.7266 5.95363 85.5458 6.20419 85.4401 6.48829L85.4132 6.56051L86.1663 6.87599L86.1873 6.78264C86.224 6.61974 86.316 6.47459 86.4476 6.37189C86.5793 6.2692 86.7425 6.2153 86.9094 6.21938L86.9138 6.21937C87.112 6.21332 87.3063 6.27543 87.4642 6.39532C87.5328 6.44881 87.5876 6.51792 87.624 6.59688C87.6605 6.67598 87.6776 6.76268 87.6737 6.84971L87.6737 6.85637C87.6773 6.95053 87.6594 7.04427 87.6212 7.13043C87.5832 7.21638 87.526 7.29252 87.454 7.35303C87.2927 7.48347 87.0896 7.55108 86.8823 7.54335L86.43 7.5433V8.30553H86.9274L86.9289 8.30552C87.1645 8.30129 87.3937 8.38295 87.5736 8.53526L87.5741 8.53569C87.6538 8.60202 87.7183 8.68472 87.7631 8.77817C87.8078 8.87138 87.8321 8.9731 87.8341 9.07647C87.834 9.18054 87.8114 9.28337 87.7679 9.37791C87.7242 9.47265 87.6606 9.55682 87.5813 9.62461L87.5806 9.62526C87.4093 9.77548 87.1884 9.85699 86.9605 9.85409L86.9582 9.85409C86.7551 9.85753 86.5577 9.78754 86.4022 9.65701C86.233 9.50651 86.1132 9.30835 86.0585 9.08853L86.0358 8.99729L85.2999 9.30979L85.3172 9.37673C85.417 9.76209 85.6537 10.0979 85.9832 10.3213C86.2717 10.5233 86.614 10.6345 86.9662 10.6404C87.4174 10.646 87.8539 10.4778 88.1844 10.1707C88.3452 10.0326 88.4734 9.86067 88.5599 9.6672C88.6463 9.47378 88.6889 9.26364 88.6846 9.05183C88.691 8.77832 88.6065 8.51038 88.4443 8.29005L88.444 8.28962C88.319 8.12219 88.1598 7.98406 87.9779 7.88392C88.1271 7.78909 88.2537 7.66152 88.3476 7.5101C88.4697 7.31317 88.5311 7.08465 88.5241 6.85306C88.529 6.66109 88.4909 6.47045 88.4128 6.29501C88.3343 6.11884 88.2174 5.96248 88.0707 5.8374C87.7561 5.57233 87.3552 5.4312 86.944 5.44108ZM43.7835 5.93056C43.9003 5.92702 44.0164 5.94903 44.1239 5.99506C44.2311 6.04101 44.327 6.10978 44.4049 6.19657C44.558 6.35257 44.6438 6.56243 44.6438 6.78106C44.6438 6.99993 44.5578 7.21002 44.4044 7.36607C44.3223 7.45435 44.222 7.5238 44.1105 7.56963C43.9991 7.61539 43.8792 7.63651 43.7589 7.63155H42.5094L42.5005 5.93056H43.7835ZM44.0606 6.14256C43.9744 6.10559 43.8811 6.08799 43.7873 6.09099L43.7847 6.09107L42.6618 6.09103L42.669 7.47108H43.7641C43.8617 7.47531 43.9591 7.45834 44.0495 7.4212C44.1399 7.38406 44.2211 7.32771 44.2875 7.25606L44.2892 7.25425C44.4136 7.12814 44.4833 6.95817 44.4833 6.78106C44.4833 6.60394 44.4136 6.43395 44.2892 6.30784L44.2864 6.30502C44.2239 6.23502 44.1469 6.17953 44.0606 6.14256ZM39.0778 5.95468L39.9907 8.53822H38.0918L39.0778 5.95468ZM48.0321 5.95468L48.945 8.53822H47.0461L48.0321 5.95468ZM60.9831 5.95758L61.895 8.53822H59.9709L60.9831 5.95758ZM60.2062 8.37775H61.6681L60.9753 6.41705L60.2062 8.37775ZM38.3248 8.37775H39.7638L39.072 6.41994L38.3248 8.37775ZM47.2791 8.37775H48.7181L48.0263 6.41994L47.2791 8.37775ZM43.8558 8.09692C44.0971 8.09007 44.3316 8.17812 44.5088 8.34221C44.6863 8.50657 44.7922 8.73408 44.8036 8.97573L44.8038 8.97905C44.8044 9.0952 44.7821 9.21035 44.7382 9.31788C44.6944 9.425 44.63 9.52246 44.5487 9.60472C44.4646 9.69519 44.3624 9.767 44.2487 9.81549C44.1349 9.86406 44.0121 9.88814 43.8884 9.88618H42.5086L42.5174 8.09692H43.8558ZM44.3998 8.45996C44.2532 8.32418 44.0591 8.25143 43.8593 8.25736L43.8569 8.25743L42.6771 8.25739L42.6698 9.72571H43.8903C43.9918 9.7274 44.0925 9.7077 44.1858 9.66789C44.2791 9.62807 44.363 9.56904 44.4319 9.49464L44.4338 9.49265C44.5007 9.42518 44.5537 9.34518 44.5896 9.2572C44.6254 9.16973 44.6436 9.0761 44.6432 8.98162C44.6334 8.78262 44.546 8.59536 44.3998 8.45996Z" fill="white"/>
<path d="M8.37654 6.04298C8.11502 6.35679 7.98302 6.75852 8.00745 7.16628V24.9144C7.98302 25.3222 8.11502 25.7239 8.37654 26.0377L8.4327 26.0939L18.3739 16.1607V15.928L8.4327 5.98682L8.37654 6.04298Z" fill="url(#paint0_linear_40_1964)"/>
<path d="M21.6636 19.4746L18.3739 16.1609V15.9282L21.6636 12.6064L21.7358 12.6466L25.6753 14.8851C26.7986 15.519 26.7986 16.5621 25.6753 17.2039L21.7518 19.4345L21.6636 19.4746Z" fill="url(#paint1_linear_40_1964)"/>
<path d="M21.7599 19.4262L18.3739 16.0403L8.37659 26.0376C8.60555 26.2389 8.89763 26.3539 9.20235 26.3627C9.50708 26.3715 9.8053 26.2735 10.0455 26.0858L21.7679 19.4262" fill="url(#paint2_linear_40_1964)"/>
<path d="M21.7599 12.6543L10.0374 5.99472C9.79725 5.80698 9.49903 5.70904 9.1943 5.71783C8.88957 5.72662 8.59749 5.84159 8.36853 6.04286L18.3739 16.0402L21.7599 12.6543Z" fill="url(#paint3_linear_40_1964)"/>
<path opacity="0.2" d="M21.6636 19.3542L10.0375 25.9737C9.80582 26.1469 9.52434 26.2405 9.23511 26.2405C8.94587 26.2405 8.6644 26.1469 8.43275 25.9737L8.37659 26.0299L8.43275 26.086C8.66387 26.2605 8.94555 26.3548 9.23511 26.3548C9.52467 26.3548 9.80634 26.2605 10.0375 26.086L21.7599 19.4265L21.6636 19.3542Z" fill="black"/>
<path opacity="0.12" d="M8.37654 25.9253C8.11502 25.6115 7.98302 25.2098 8.00745 24.802V24.9224C7.98302 25.3301 8.11502 25.7319 8.37654 26.0457L8.4327 25.9895L8.37654 25.9253ZM25.6753 17.0833L21.6636 19.354L21.7358 19.4262L25.6753 17.1957C25.8989 17.0907 26.0908 16.9286 26.2316 16.7257C26.3725 16.5228 26.4574 16.2864 26.4777 16.0403C26.4326 16.2639 26.3368 16.4742 26.1977 16.655C26.0586 16.8358 25.8799 16.9824 25.6753 17.0833Z" fill="black"/>
<path opacity="0.25" d="M10.0375 6.10708L25.6754 14.9972C25.88 15.0982 26.0587 15.2447 26.1978 15.4255C26.3369 15.6063 26.4327 15.8166 26.4778 16.0403C26.4575 15.7941 26.3726 15.5577 26.2317 15.3548C26.0908 15.152 25.899 14.9899 25.6754 14.8849L10.0375 5.99475C8.9142 5.36088 7.99951 5.89044 7.99951 7.17421V7.29456C8.02358 6.00277 8.92222 5.47322 10.0375 6.10708Z" fill="white"/>
<defs>
<linearGradient id="paint0_linear_40_1964" x1="17.4913" y1="6.98174" x2="4.02777" y2="20.4453" gradientUnits="userSpaceOnUse">
<stop stop-color="#00A0FF"/>
<stop offset="0.01" stop-color="#00A1FF"/>
<stop offset="0.26" stop-color="#00BEFF"/>
<stop offset="0.51" stop-color="#00D2FF"/>
<stop offset="0.76" stop-color="#00DFFF"/>
<stop offset="1" stop-color="#00E3FF"/>
</linearGradient>
<linearGradient id="paint1_linear_40_1964" x1="27.1437" y1="16.0405" x2="7.73466" y2="16.0405" gradientUnits="userSpaceOnUse">
<stop stop-color="#FFE000"/>
<stop offset="0.41" stop-color="#FFBD00"/>
<stop offset="0.78" stop-color="#FFA500"/>
<stop offset="1" stop-color="#FF9C00"/>
</linearGradient>
<linearGradient id="paint2_linear_40_1964" x1="19.9225" y1="17.8857" x2="1.66086" y2="36.1393" gradientUnits="userSpaceOnUse">
<stop stop-color="#FF3A44"/>
<stop offset="1" stop-color="#C31162"/>
</linearGradient>
<linearGradient id="paint3_linear_40_1964" x1="5.85715" y1="0.137514" x2="14.0091" y2="8.28945" gradientUnits="userSpaceOnUse">
<stop stop-color="#32A071"/>
<stop offset="0.07" stop-color="#2DA771"/>
<stop offset="0.48" stop-color="#15CF74"/>
<stop offset="0.8" stop-color="#06E775"/>
<stop offset="1" stop-color="#00F076"/>
</linearGradient>
</defs>
</svg>
