<svg width="150" height="45" viewBox="0 0 150 45" fill="none" xmlns="http://www.w3.org/2000/svg">
<path d="M144 0H5.53846C2.47965 0 0 2.47965 0 5.53846V38.7692C0 41.828 2.47965 44.3077 5.53846 44.3077H144C147.059 44.3077 149.538 41.828 149.538 38.7692V5.53846C149.538 2.47965 147.059 0 144 0Z" fill="black"/>
<path d="M144 0.886154C145.234 0.886154 146.417 1.37631 147.29 2.24878C148.162 3.12126 148.652 4.30459 148.652 5.53846V38.7692C148.652 40.0031 148.162 41.1864 147.29 42.0589C146.417 42.9314 145.234 43.4215 144 43.4215H5.53846C4.30459 43.4215 3.12126 42.9314 2.24878 42.0589C1.37631 41.1864 0.886154 40.0031 0.886154 38.7692V5.53846C0.886154 4.30459 1.37631 3.12126 2.24878 2.24878C3.12126 1.37631 4.30459 0.886154 5.53846 0.886154H144ZM144 0H5.53846C4.06957 0 2.66084 0.583515 1.62218 1.62218C0.583515 2.66084 0 4.06957 0 5.53846V38.7692C0 40.2381 0.583515 41.6469 1.62218 42.6855C2.66084 43.7242 4.06957 44.3077 5.53846 44.3077H144C145.469 44.3077 146.878 43.7242 147.916 42.6855C148.955 41.6469 149.538 40.2381 149.538 38.7692V5.53846C149.538 4.06957 148.955 2.66084 147.916 1.62218C146.878 0.583515 145.469 0 144 0Z" fill="#A6A6A6"/>
<path d="M75.4782 24.0923C74.5481 24.0967 73.6401 24.3765 72.8688 24.8965C72.0976 25.4164 71.4976 26.1532 71.1447 27.0138C70.7918 27.8744 70.7017 28.8202 70.8859 29.732C71.07 30.6437 71.5201 31.4805 72.1793 32.1366C72.8386 32.7928 73.6775 33.239 74.5901 33.4188C75.5027 33.5987 76.4481 33.5042 77.307 33.1472C78.1659 32.7903 78.8999 32.1869 79.4162 31.4132C79.9325 30.6395 80.2081 29.7302 80.2081 28.8C80.2171 28.1774 80.1008 27.5594 79.866 26.9827C79.6312 26.406 79.2828 25.8824 78.8414 25.4432C78.4001 25.0039 77.8749 24.658 77.2971 24.4259C76.7193 24.1938 76.1008 24.0804 75.4782 24.0923ZM75.4782 31.6579C74.9062 31.6979 74.3353 31.5649 73.8399 31.2761C73.3445 30.9874 72.9473 30.5563 72.7001 30.0389C72.453 29.5215 72.3671 28.9417 72.4539 28.3748C72.5406 27.808 72.7958 27.2804 73.1864 26.8605C73.5769 26.4406 74.0848 26.148 74.6439 26.0206C75.203 25.8932 75.7875 25.9369 76.3214 26.1461C76.8553 26.3553 77.3139 26.7202 77.6377 27.1935C77.9614 27.6669 78.1353 28.2266 78.1367 28.8C78.1545 29.1634 78.0994 29.5266 77.9747 29.8683C77.8499 30.21 77.658 30.5233 77.4102 30.7896C77.1624 31.056 76.8638 31.27 76.532 31.4192C76.2002 31.5683 75.8419 31.6494 75.4782 31.6579ZM65.1656 24.0923C64.235 24.0945 63.3259 24.3725 62.5532 24.8911C61.7804 25.4097 61.1788 26.1457 60.8242 27.0061C60.4695 27.8665 60.3779 28.8128 60.5608 29.7252C60.7437 30.6377 61.1929 31.4755 61.8517 32.1328C62.5106 32.79 63.3494 33.2373 64.2623 33.4181C65.1752 33.5988 66.1212 33.5049 66.9808 33.1483C67.8403 32.7917 68.5749 32.1883 69.0917 31.4143C69.6085 30.6404 69.8844 29.7306 69.8844 28.8C69.8934 28.1774 69.7771 27.5594 69.5423 26.9827C69.3075 26.406 68.9591 25.8824 68.5178 25.4432C68.0764 25.0039 67.5512 24.658 66.9734 24.4259C66.3957 24.1938 65.7771 24.0804 65.1545 24.0923H65.1656ZM65.1656 31.6579C64.5933 31.7001 64.0215 31.5691 63.5247 31.2819C63.0279 30.9946 62.6291 30.5645 62.3801 30.0474C62.1312 29.5303 62.0437 28.9503 62.1291 28.3828C62.2144 27.8153 62.4686 27.2866 62.8586 26.8657C63.2486 26.4447 63.7563 26.1508 64.3156 26.0224C64.8749 25.894 65.46 25.9369 65.9945 26.1457C66.5291 26.3544 66.9885 26.7192 67.3128 27.1926C67.6371 27.6661 67.8114 28.2262 67.813 28.8C67.8308 29.1634 67.7757 29.5266 67.651 29.8683C67.5262 30.21 67.3343 30.5233 67.0865 30.7896C66.8387 31.056 66.5401 31.27 66.2083 31.4192C65.8765 31.5683 65.5182 31.6494 65.1545 31.6579H65.1656ZM52.8813 25.5434V27.5373H57.6665C57.5915 28.4764 57.2011 29.3625 56.5588 30.0517C56.0801 30.5394 55.5046 30.9214 54.8693 31.1732C54.234 31.425 53.553 31.5411 52.8702 31.5139C51.4601 31.5139 50.1077 30.9537 49.1106 29.9566C48.1135 28.9595 47.5533 27.6071 47.5533 26.197C47.5533 24.7868 48.1135 23.4344 49.1106 22.4373C50.1077 21.4402 51.4601 20.88 52.8702 20.88C54.2192 20.858 55.5218 21.3719 56.4924 22.3089L57.8991 20.9022C57.2439 20.2387 56.4622 19.7135 55.6002 19.3577C54.7383 19.0019 53.8137 18.8227 52.8813 18.8308C51.8965 18.7925 50.9142 18.9533 49.9931 19.3037C49.072 19.6542 48.2312 20.1869 47.5209 20.8701C46.8106 21.5532 46.2456 22.3727 45.8596 23.2795C45.4737 24.1863 45.2747 25.1616 45.2747 26.1471C45.2747 27.1326 45.4737 28.1079 45.8596 29.0147C46.2456 29.9215 46.8106 30.741 47.5209 31.4241C48.2312 32.1073 49.072 32.6401 49.9931 32.9905C50.9142 33.3409 51.8965 33.5017 52.8813 33.4634C53.8294 33.5063 54.7757 33.3455 55.6565 32.9921C56.5374 32.6386 57.3323 32.1006 57.9877 31.4142C59.1482 30.1391 59.7679 28.463 59.7157 26.7397C59.7193 26.3199 59.6822 25.9007 59.605 25.488L52.8813 25.5434ZM103.071 27.0942C102.782 26.2443 102.242 25.5022 101.522 24.9661C100.802 24.4301 99.9359 24.1254 99.0388 24.0923C98.4329 24.0911 97.8332 24.2143 97.2768 24.454C96.7203 24.6938 96.219 25.0452 95.8037 25.4864C95.3884 25.9276 95.068 26.4493 94.8624 27.0193C94.6568 27.5892 94.5702 28.1953 94.6081 28.8C94.5946 29.4191 94.7061 30.0346 94.9358 30.6097C95.1655 31.1847 95.5088 31.7076 95.9451 32.147C96.3814 32.5864 96.9018 32.9334 97.4753 33.1672C98.0487 33.401 98.6633 33.5168 99.2825 33.5077C100.057 33.5119 100.821 33.3239 101.505 32.9604C102.19 32.597 102.773 32.0695 103.204 31.4253L101.598 30.3176C101.358 30.7172 101.019 31.0478 100.613 31.2769C100.207 31.506 99.7485 31.6258 99.2825 31.6246C98.8027 31.6429 98.3285 31.5164 97.9215 31.2616C97.5146 31.0068 97.1937 30.6354 97.0007 30.1957L103.303 27.5926L103.071 27.0942ZM96.6462 28.6671C96.6238 28.3245 96.6699 27.9808 96.7819 27.6563C96.8939 27.3317 97.0696 27.0328 97.2986 26.7769C97.5276 26.5211 97.8054 26.3135 98.1156 26.1664C98.4258 26.0193 98.7623 25.9355 99.1053 25.92C99.4626 25.8965 99.819 25.9784 100.13 26.1556C100.441 26.3329 100.693 26.5976 100.855 26.9169L96.6462 28.6671ZM91.5287 33.2308H93.6001V19.3846H91.5287V33.2308ZM88.1391 25.1446H88.0616C87.7494 24.7956 87.367 24.5165 86.9394 24.3256C86.5118 24.1347 86.0487 24.0363 85.5804 24.037C84.3699 24.0957 83.2284 24.6178 82.3924 25.4953C81.5564 26.3728 81.0902 27.5383 81.0902 28.7502C81.0902 29.9621 81.5564 31.1276 82.3924 32.005C83.2284 32.8825 84.3699 33.4047 85.5804 33.4634C86.0498 33.4713 86.5152 33.3762 86.9439 33.1848C87.3726 32.9935 87.7541 32.7104 88.0616 32.3557H88.1281V33.0314C88.1281 34.837 87.1644 35.8006 85.6136 35.8006C85.0971 35.7886 84.5959 35.623 84.1737 35.3252C83.7516 35.0273 83.4277 34.6106 83.2431 34.128L81.4376 34.8813C81.7775 35.708 82.3566 36.4143 83.1006 36.9097C83.8447 37.4051 84.7197 37.6669 85.6136 37.6616C88.0394 37.6616 90.0444 36.2326 90.0444 32.7545V24.3693H88.1391V25.1446ZM85.7687 31.6579C85.0542 31.5949 84.3891 31.2666 83.9047 30.7376C83.4203 30.2086 83.1516 29.5173 83.1516 28.8C83.1516 28.0827 83.4203 27.3915 83.9047 26.8625C84.3891 26.3335 85.0542 26.0051 85.7687 25.9422C86.1229 25.9604 86.47 26.0493 86.7894 26.2036C87.1087 26.358 87.394 26.5747 87.6283 26.8411C87.8626 27.1074 88.0413 27.4179 88.1538 27.7544C88.2662 28.0908 88.3102 28.4463 88.2831 28.8C88.3134 29.1553 88.2712 29.5129 88.1593 29.8514C88.0473 30.1899 87.8679 30.5021 87.6318 30.7693C87.3957 31.0364 87.1079 31.2529 86.7857 31.4056C86.4636 31.5584 86.1138 31.6442 85.7576 31.6579H85.7687ZM112.774 19.3846H107.823V33.2308H109.894V27.9803H112.785C113.376 28.0227 113.968 27.9431 114.527 27.7463C115.085 27.5495 115.596 27.2399 116.03 26.8366C116.463 26.4334 116.809 25.9452 117.045 25.4026C117.281 24.8599 117.403 24.2744 117.403 23.6825C117.403 23.0906 117.281 22.5051 117.045 21.9624C116.809 21.4198 116.463 20.9316 116.03 20.5283C115.596 20.1251 115.085 19.8154 114.527 19.6187C113.968 19.4219 113.376 19.3422 112.785 19.3846H112.774ZM112.774 26.0308H109.883V21.312H112.819C113.449 21.312 114.053 21.5624 114.499 22.0079C114.944 22.4535 115.195 23.0579 115.195 23.688C115.195 24.3182 114.944 24.9225 114.499 25.3681C114.053 25.8137 113.449 26.064 112.819 26.064L112.774 26.0308ZM125.546 24.037C124.792 23.9919 124.041 24.1681 123.386 24.544C122.73 24.9198 122.199 25.479 121.857 26.1526L123.696 26.9169C123.877 26.5828 124.152 26.3086 124.486 26.1277C124.821 25.9467 125.2 25.8669 125.579 25.8979C125.842 25.8672 126.109 25.8891 126.363 25.9625C126.617 26.0358 126.854 26.1591 127.061 26.3251C127.267 26.4911 127.438 26.6965 127.564 26.9294C127.69 27.1622 127.768 27.4178 127.795 27.6813V27.8253C127.129 27.473 126.387 27.2904 125.635 27.2936C123.652 27.2936 121.647 28.4013 121.647 30.4062C121.666 30.8337 121.771 31.2529 121.956 31.6391C122.14 32.0253 122.4 32.3706 122.72 32.6546C123.04 32.9386 123.414 33.1555 123.82 33.2925C124.225 33.4295 124.654 33.4839 125.081 33.4523C125.602 33.4898 126.124 33.3861 126.592 33.1523C127.06 32.9184 127.456 32.5629 127.739 32.1231H127.806V33.2308H129.799V27.9028C129.799 25.4769 127.961 24.0702 125.601 24.0702L125.546 24.037ZM125.291 31.6246C124.615 31.6246 123.674 31.2813 123.674 30.4505C123.674 29.3428 124.848 28.9773 125.889 28.9773C126.547 28.961 127.198 29.1217 127.772 29.4425C127.703 30.0422 127.419 30.5967 126.974 31.0038C126.528 31.4109 125.95 31.6432 125.347 31.6579L125.291 31.6246ZM137.066 24.3693L134.695 30.3729H134.629L132.17 24.3693H129.955L133.643 32.7656L131.539 37.429H133.699L139.37 24.3693H137.066ZM118.446 33.2308H120.517V19.3846H118.446V33.2308Z" fill="white"/>
<path d="M62.33 15C62.2367 15 62.19 14.9533 62.19 14.86V5.97C62.19 5.87667 62.2367 5.83 62.33 5.83H64.78C66.2173 5.83 67.2907 6.166 68 6.838C68.7093 7.50067 69.064 8.50867 69.064 9.862V10.562C69.064 12.0553 68.7093 13.1707 68 13.908C67.3 14.636 66.2267 15 64.78 15H62.33ZM63.38 13.992H64.696C65.788 13.992 66.5907 13.7213 67.104 13.18C67.6173 12.6387 67.874 11.794 67.874 10.646V9.778C67.874 8.77 67.6173 8.028 67.104 7.552C66.5907 7.076 65.788 6.838 64.696 6.838H63.38V13.992ZM73.7208 15.168C72.7781 15.168 72.0594 14.9393 71.5648 14.482C71.0794 14.0247 70.8368 13.3293 70.8368 12.396V10.772C70.8368 9.83867 71.0794 9.14333 71.5648 8.686C72.0501 8.22867 72.7688 8 73.7208 8C74.6634 8 75.3774 8.22867 75.8628 8.686C76.3574 9.14333 76.6048 9.83867 76.6048 10.772V12.396C76.6048 13.3293 76.3621 14.0247 75.8768 14.482C75.3914 14.9393 74.6728 15.168 73.7208 15.168ZM73.7208 14.118C74.3181 14.118 74.7474 13.9687 75.0088 13.67C75.2794 13.362 75.4148 12.9 75.4148 12.284V10.884C75.4148 10.268 75.2794 9.81067 75.0088 9.512C74.7474 9.204 74.3181 9.05 73.7208 9.05C73.1234 9.05 72.6894 9.204 72.4188 9.512C72.1574 9.81067 72.0267 10.268 72.0267 10.884V12.284C72.0267 12.9 72.1574 13.362 72.4188 13.67C72.6894 13.9687 73.1234 14.118 73.7208 14.118ZM79.9543 15C79.8796 15 79.8283 14.958 79.8003 14.874L77.7703 8.322C77.7423 8.21933 77.7796 8.168 77.8823 8.168H78.8623C78.9369 8.168 78.9883 8.21 79.0163 8.294L80.1223 12.158C80.2063 12.4567 80.2903 12.7553 80.3743 13.054C80.4583 13.3527 80.5423 13.6513 80.6263 13.95H80.6543C80.7476 13.6607 80.8409 13.3713 80.9343 13.082C81.0276 12.7927 81.1209 12.5033 81.2143 12.214L81.9703 9.876L81.5503 8.462C81.5223 8.35933 81.5596 8.308 81.6623 8.308H82.5443C82.6283 8.308 82.6796 8.34533 82.6983 8.42L83.7343 12.228C83.8089 12.5173 83.8836 12.8067 83.9583 13.096C84.0329 13.376 84.1076 13.6607 84.1823 13.95H84.2103C84.2943 13.6513 84.3736 13.3573 84.4483 13.068C84.5323 12.7693 84.6163 12.4753 84.7003 12.186L85.8203 8.294C85.8483 8.21 85.8996 8.168 85.9743 8.168H86.9543C87.0569 8.168 87.0943 8.21933 87.0663 8.322L85.0223 14.874C85.0129 14.9113 84.9943 14.944 84.9663 14.972C84.9476 14.9907 84.9149 15 84.8683 15H83.5943C83.5196 15 83.4683 14.9627 83.4403 14.888L83.0063 13.46C82.9129 13.1427 82.8243 12.8207 82.7403 12.494C82.6563 12.1673 82.5676 11.8173 82.4743 11.444H82.4463C82.3529 11.8173 82.2549 12.1627 82.1523 12.48C82.0589 12.7973 81.9609 13.11 81.8583 13.418L81.3823 14.888C81.3543 14.9627 81.3029 15 81.2283 15H79.9543ZM93.1117 15C93.0184 15 92.9717 14.9533 92.9717 14.86V10.394C92.9717 9.92733 92.8737 9.58667 92.6777 9.372C92.4911 9.15733 92.2064 9.05 91.8237 9.05C91.4597 9.05 91.1004 9.15733 90.7457 9.372C90.3911 9.58667 89.9477 9.95533 89.4157 10.478L89.4297 9.4C89.7471 9.064 90.0457 8.79333 90.3257 8.588C90.6151 8.38267 90.8997 8.23333 91.1797 8.14C91.4691 8.04667 91.7724 8 92.0897 8C92.7617 8 93.2751 8.196 93.6297 8.588C93.9844 8.98 94.1617 9.56333 94.1617 10.338V14.86C94.1617 14.9533 94.1151 15 94.0217 15H93.1117ZM88.6177 15C88.5244 15 88.4777 14.9533 88.4777 14.86V9.876C88.4777 9.63333 88.4637 9.36267 88.4357 9.064C88.4171 8.756 88.3984 8.518 88.3797 8.35C88.3611 8.22867 88.4077 8.168 88.5197 8.168H89.3737C89.4204 8.168 89.4531 8.17733 89.4717 8.196C89.4997 8.21467 89.5184 8.252 89.5277 8.308C89.5464 8.38267 89.5651 8.49933 89.5837 8.658C89.6024 8.81667 89.6211 8.98467 89.6397 9.162C89.6584 9.33 89.6677 9.47467 89.6677 9.596V9.96V14.86C89.6677 14.9533 89.6211 15 89.5277 15H88.6177ZM96.397 15C96.3037 15 96.257 14.9533 96.257 14.86V5.578C96.257 5.48467 96.3037 5.438 96.397 5.438H97.307C97.4004 5.438 97.447 5.48467 97.447 5.578V14.86C97.447 14.9533 97.4004 15 97.307 15H96.397ZM102.254 15.168C101.311 15.168 100.593 14.9393 100.098 14.482C99.6126 14.0247 99.37 13.3293 99.37 12.396V10.772C99.37 9.83867 99.6126 9.14333 100.098 8.686C100.583 8.22867 101.302 8 102.254 8C103.197 8 103.911 8.22867 104.396 8.686C104.891 9.14333 105.138 9.83867 105.138 10.772V12.396C105.138 13.3293 104.895 14.0247 104.41 14.482C103.925 14.9393 103.206 15.168 102.254 15.168ZM102.254 14.118C102.851 14.118 103.281 13.9687 103.542 13.67C103.813 13.362 103.948 12.9 103.948 12.284V10.884C103.948 10.268 103.813 9.81067 103.542 9.512C103.281 9.204 102.851 9.05 102.254 9.05C101.657 9.05 101.223 9.204 100.952 9.512C100.691 9.81067 100.56 10.268 100.56 10.884V12.284C100.56 12.9 100.691 13.362 100.952 13.67C101.223 13.9687 101.657 14.118 102.254 14.118ZM111.02 15C110.964 15 110.926 14.9813 110.908 14.944C110.889 14.9067 110.87 14.86 110.852 14.804C110.842 14.7293 110.819 14.5707 110.782 14.328C110.754 14.076 110.735 13.852 110.726 13.656L110.684 13.124V10.338C110.684 9.87133 110.59 9.54 110.404 9.344C110.217 9.148 109.89 9.05 109.424 9.05C108.584 9.05 108.164 9.33933 108.164 9.918C108.164 10.0113 108.122 10.058 108.038 10.058H107.114C107.02 10.058 106.969 9.96933 106.96 9.792C106.913 9.26 107.118 8.83067 107.576 8.504C108.042 8.168 108.672 8 109.466 8C110.278 8 110.88 8.19133 111.272 8.574C111.673 8.95667 111.874 9.53533 111.874 10.31V13.306C111.874 13.6327 111.883 13.9267 111.902 14.188C111.92 14.44 111.944 14.6593 111.972 14.846C111.99 14.9487 111.944 15 111.832 15H111.02ZM108.346 15.168C107.804 15.168 107.389 15.0047 107.1 14.678C106.82 14.3513 106.68 13.8753 106.68 13.25C106.68 12.7647 106.773 12.368 106.96 12.06C107.156 11.752 107.464 11.514 107.884 11.346C108.313 11.178 108.882 11.066 109.592 11.01L110.908 10.898V11.808L109.564 11.92C108.92 11.976 108.476 12.0927 108.234 12.27C107.991 12.4473 107.87 12.746 107.87 13.166C107.87 13.4833 107.935 13.7213 108.066 13.88C108.196 14.0387 108.392 14.118 108.654 14.118C108.962 14.118 109.284 14.0153 109.62 13.81C109.956 13.5953 110.399 13.2033 110.95 12.634V13.684C110.623 14.0387 110.315 14.328 110.026 14.552C109.746 14.7667 109.47 14.9207 109.2 15.014C108.929 15.1167 108.644 15.168 108.346 15.168ZM115.852 15.168C115.198 15.168 114.694 14.9487 114.34 14.51C113.994 14.0713 113.822 13.4227 113.822 12.564V10.814C113.822 9.92733 114.046 9.23667 114.494 8.742C114.942 8.24733 115.562 8 116.356 8C116.72 8 117.102 8.05133 117.504 8.154C117.905 8.24733 118.208 8.36867 118.414 8.518L118.484 9.54C118.185 9.38133 117.858 9.26 117.504 9.176C117.149 9.092 116.836 9.05 116.566 9.05C116.043 9.05 115.651 9.20867 115.39 9.526C115.138 9.84333 115.012 10.3193 115.012 10.954V12.634C115.012 13.1287 115.105 13.502 115.292 13.754C115.488 13.9967 115.777 14.118 116.16 14.118C116.393 14.118 116.622 14.076 116.846 13.992C117.07 13.8987 117.317 13.7493 117.588 13.544C117.858 13.3293 118.176 13.04 118.54 12.676L118.512 13.768C118.194 14.0853 117.891 14.3513 117.602 14.566C117.322 14.7713 117.037 14.9207 116.748 15.014C116.468 15.1167 116.169 15.168 115.852 15.168ZM118.61 15C118.563 15 118.526 14.9907 118.498 14.972C118.47 14.944 118.451 14.902 118.442 14.846C118.423 14.706 118.4 14.5287 118.372 14.314C118.344 14.0993 118.334 13.922 118.344 13.782L118.274 13.152V5.578C118.274 5.48467 118.32 5.438 118.414 5.438H119.324C119.417 5.438 119.464 5.48467 119.464 5.578V13.418C119.464 13.5487 119.468 13.7073 119.478 13.894C119.487 14.0713 119.496 14.244 119.506 14.412C119.524 14.58 119.543 14.7107 119.562 14.804C119.59 14.9347 119.543 15 119.422 15H118.61Z" fill="white"/>
<path d="M11.5642 8.35203C11.2032 8.78526 11.0209 9.33986 11.0547 9.9028V34.405C11.0209 34.9679 11.2032 35.5225 11.5642 35.9557L11.6417 36.0333L25.366 22.32V21.9988L11.6417 8.27449L11.5642 8.35203Z" fill="url(#paint0_linear_40_1744)"/>
<path d="M29.9076 26.8948L25.366 22.32V21.9988L29.9076 17.413L30.0073 17.4683L35.446 20.5588C36.9968 21.4339 36.9968 22.8739 35.446 23.76L30.0294 26.8394L29.9076 26.8948Z" fill="url(#paint1_linear_40_1744)"/>
<path d="M30.0405 26.8283L25.3661 22.1539L11.5642 35.9557C11.8803 36.2336 12.2836 36.3923 12.7043 36.4045C13.1249 36.4166 13.5367 36.2814 13.8682 36.0222L30.0516 26.8283" fill="url(#paint2_linear_40_1744)"/>
<path d="M30.0405 17.4794L13.8572 8.28558C13.5256 8.0264 13.1139 7.89119 12.6932 7.90332C12.2725 7.91546 11.8693 8.07418 11.5532 8.35204L25.3661 22.1539L30.0405 17.4794Z" fill="url(#paint3_linear_40_1744)"/>
<path opacity="0.2" d="M29.9076 26.7287L13.8572 35.8671C13.5374 36.1062 13.1488 36.2354 12.7495 36.2354C12.3502 36.2354 11.9616 36.1062 11.6418 35.8671L11.5642 35.9447L11.6418 36.0222C11.9609 36.263 12.3497 36.3933 12.7495 36.3933C13.1492 36.3933 13.5381 36.263 13.8572 36.0222L30.0405 26.8283L29.9076 26.7287Z" fill="black"/>
<path opacity="0.12" d="M11.5642 35.8007C11.2032 35.3674 11.0209 34.8128 11.0547 34.2499V34.416C11.0209 34.979 11.2032 35.5336 11.5642 35.9668L11.6417 35.8893L11.5642 35.8007ZM35.446 23.5939L29.9076 26.7287L30.0073 26.8283L35.446 23.749C35.7547 23.604 36.0196 23.3802 36.214 23.1001C36.4085 22.8201 36.5257 22.4937 36.5537 22.1539C36.4914 22.4626 36.3592 22.7529 36.1672 23.0026C35.9752 23.2522 35.7285 23.4545 35.446 23.5939Z" fill="black"/>
<path opacity="0.25" d="M13.8572 8.44048L35.4461 20.7137C35.7285 20.8531 35.9752 21.0554 36.1673 21.305C36.3593 21.5547 36.4915 21.845 36.5538 22.1537C36.5258 21.8139 36.4086 21.4875 36.2141 21.2075C36.0196 20.9274 35.7547 20.7036 35.4461 20.5586L13.8572 8.2854C12.3064 7.41032 11.0437 8.1414 11.0437 9.91371V10.0799C11.0769 8.29648 12.3175 7.5654 13.8572 8.44048Z" fill="white"/>
<defs>
<linearGradient id="paint0_linear_40_1744" x1="24.1476" y1="9.64803" x2="5.56051" y2="28.2351" gradientUnits="userSpaceOnUse">
<stop stop-color="#00A0FF"/>
<stop offset="0.01" stop-color="#00A1FF"/>
<stop offset="0.26" stop-color="#00BEFF"/>
<stop offset="0.51" stop-color="#00D2FF"/>
<stop offset="0.76" stop-color="#00DFFF"/>
<stop offset="1" stop-color="#00E3FF"/>
</linearGradient>
<linearGradient id="paint1_linear_40_1744" x1="37.4731" y1="22.1539" x2="10.678" y2="22.1539" gradientUnits="userSpaceOnUse">
<stop stop-color="#FFE000"/>
<stop offset="0.41" stop-color="#FFBD00"/>
<stop offset="0.78" stop-color="#FFA500"/>
<stop offset="1" stop-color="#FF9C00"/>
</linearGradient>
<linearGradient id="paint2_linear_40_1744" x1="27.5039" y1="24.7016" x2="2.29285" y2="49.9016" gradientUnits="userSpaceOnUse">
<stop stop-color="#FF3A44"/>
<stop offset="1" stop-color="#C31162"/>
</linearGradient>
<linearGradient id="paint3_linear_40_1744" x1="8.08609" y1="0.199426" x2="19.3402" y2="11.4536" gradientUnits="userSpaceOnUse">
<stop stop-color="#32A071"/>
<stop offset="0.07" stop-color="#2DA771"/>
<stop offset="0.48" stop-color="#15CF74"/>
<stop offset="0.8" stop-color="#06E775"/>
<stop offset="1" stop-color="#00F076"/>
</linearGradient>
</defs>
</svg>
