<svg width="119" height="18" viewBox="0 0 119 18" fill="none" xmlns="http://www.w3.org/2000/svg">
<g clip-path="url(#clip0_40_1777)">
<path d="M28.1754 12.6588L21.9927 2.05917C20.6433 -0.14825 17.3202 -0.168136 16.0111 2.15861L9.52617 13.1758C8.3178 15.2043 9.80812 17.7299 12.245 17.7299H25.2753C27.7123 17.7498 29.545 15.1247 28.1754 12.6588Z" fill="#003087"/>
<path d="M19.2537 13.494L18.871 12.8378C18.5085 12.2213 17.723 10.9088 17.723 10.9088L12.4868 1.92C11.1374 -0.0686714 7.91507 -0.247655 6.56572 2.27796L0.463423 12.6986C-0.805373 14.8861 0.705101 17.7299 3.44409 17.7498H16.3939H21.9121H25.1949C21.8516 17.7697 20.7843 16.0395 19.2537 13.494Z" fill="#1877F2"/>
<path d="M19.2536 13.4542L18.8709 12.798C18.5084 12.1815 17.723 10.869 17.723 10.869L14.3395 4.98251L9.48587 13.1758C8.2775 15.2043 9.76782 17.7299 12.2047 17.7299H16.3736H21.8919H25.1948C21.8315 17.71 20.7842 16.0196 19.2536 13.4542Z" fill="url(#paint0_linear_40_1777)"/>
<path d="M108.668 4.95121C109.574 4.11597 111.165 3.71823 113.481 3.71823H118.899V0.675568H112.495C110.964 0.675568 109.675 0.834667 108.668 1.15285C107.681 1.47104 106.815 1.9682 106.07 2.66424C105.284 3.41993 104.66 4.3546 104.217 5.46825C103.774 6.60179 103.553 7.83477 103.553 9.12741C103.553 10.3604 103.774 11.5536 104.217 12.6474C104.66 13.7411 105.284 14.6957 106.07 15.4514C106.795 16.1474 107.661 16.6446 108.628 16.9628C109.615 17.281 110.924 17.4401 112.495 17.4401H118.899V14.4372H113.481C112.253 14.4372 111.407 14.3974 110.924 14.2979C110.42 14.1985 109.957 14.0394 109.574 13.8008C108.809 13.3235 108.225 12.707 107.842 11.9314C107.48 11.1757 107.298 10.2212 107.298 9.10753C107.298 7.1984 107.762 5.78645 108.668 4.95121Z" fill="white"/>
<path d="M61.5211 17.4798H76.626V14.5366H65.2067V10.3405H75.1758V7.55637H65.2067V3.65858H76.626V0.695465H61.5211V17.4798Z" fill="white"/>
<path d="M80.392 0.695465L87.4611 9.08764L80.392 17.4798H84.9638L90.5424 10.8377V7.3575L84.9638 0.695465H80.392Z" fill="white"/>
<path d="M97.5509 0.695465L91.9723 7.3575V10.8377L97.5509 17.4798H102.123L95.0335 9.08764L102.123 0.695465H97.5509Z" fill="white"/>
<path d="M46.7187 8.96833L39.9316 0.695465H36.4273V17.4798H40.1128V6.28362L45.9936 13.244H47.4234L53.3042 6.22398V17.4798H56.9897V0.695465H53.5258L46.7187 8.96833Z" fill="white"/>
</g>
<defs>
<linearGradient id="paint0_linear_40_1777" x1="7.75361" y1="9.46251" x2="22.7531" y2="15.0758" gradientUnits="userSpaceOnUse">
<stop stop-color="#003087" stop-opacity="0"/>
<stop offset="1" stop-color="#003087"/>
</linearGradient>
<clipPath id="clip0_40_1777">
<rect width="119" height="18" fill="white"/>
</clipPath>
</defs>
</svg>
