<svg width="341" height="516" viewBox="0 0 341 516" fill="none" xmlns="http://www.w3.org/2000/svg">
<g style="mix-blend-mode:overlay" filter="url(#filter0_f_40_1828)" opacity="0.2">
<path d="M284.069 174.606C275.09 161.94 265.526 149.253 256.855 135.967C249.985 125.433 242.924 114.697 238.267 103.124C231.06 85.1992 237.657 70.6474 254.818 61.6357C271.656 52.8086 287.727 56.5791 299.184 71.7004C307.062 82.0873 309.771 93.7299 306.85 106.169C296.357 150.565 309.093 190.603 329.581 229.009C334.107 237.495 341.088 245.17 348.375 251.6C360.258 262.089 371.89 261.101 383.609 250.231C392.59 241.905 398.729 231.596 403.756 220.586C412.973 200.384 418.51 179.302 418.556 157.03C418.563 144.497 416.213 132.864 408.597 122.192C399.655 109.663 404.528 90.4203 417.702 81.8081C431.902 72.5146 450.486 75.8139 459.681 89.2833C469.571 103.764 466.396 122.417 451.664 132.057C443.257 137.551 438.74 145.062 436.526 154.382C432.866 169.777 433.558 185.336 435.076 200.824C438.653 236.746 447.33 271.658 455.943 306.575C461.544 329.259 466.923 351.953 466.783 375.536C466.706 388.442 465.225 401.143 460.595 413.313C451.151 438.231 432.523 452.043 406.764 456.733C382.314 461.15 358.562 457.1 335.152 450.212C308.456 442.34 284.482 428.779 260.356 415.345C242.405 405.35 224.139 395.57 205.105 387.908C171.714 374.465 139.026 377.575 107.967 396.62C93.1003 405.738 74.4636 402.072 63.7765 388.498C53.5537 375.461 54.6395 356.587 66.3657 344.358C80.3612 329.79 104.962 330.315 116.551 346.553C124.143 357.147 134.141 361.665 146.033 363.059C178.297 366.858 209.575 362.669 239.293 349.122C244.096 346.732 248.424 343.487 252.065 339.548C256.381 335.109 255.845 329.74 251.634 325.151C250.122 323.474 248.435 321.962 246.602 320.641C223.706 304.464 200.806 288.31 177.899 272.178C170.748 267.134 163.452 262.305 156.361 257.191C145.317 249.209 133.077 243.825 120.082 239.924C112.214 237.516 104.173 234.973 96.9069 231.15C91.2092 228.138 85.5389 223.856 81.7233 218.753C71.0107 204.386 75.4585 186.416 91.4158 175.916C105.782 166.464 125.665 170.431 133.942 185.21C137.761 192.341 140.662 199.928 142.578 207.79C145.717 219.876 151.995 229.005 162.618 235.807C191.469 254.281 220.486 272.483 253.139 283.642C263.087 287.108 273.445 289.277 283.957 290.098C304.237 291.488 314.92 280.361 314.473 260.04C314.127 244.693 309.606 230.28 303.653 216.409C297.701 202.538 290.789 188.818 284.069 174.606Z" fill="white"/>
</g>
<defs>
<filter id="filter0_f_40_1828" x="0.082592" y="0.241833" width="523.403" height="515.035" filterUnits="userSpaceOnUse" color-interpolation-filters="sRGB">
<feFlood flood-opacity="0" result="BackgroundImageFix"/>
<feBlend mode="normal" in="SourceGraphic" in2="BackgroundImageFix" result="shape"/>
<feGaussianBlur stdDeviation="28.35" result="effect1_foregroundBlur_40_1828"/>
</filter>
</defs>
</svg>
