<svg width="90" height="80" viewBox="0 0 90 80" fill="none" xmlns="http://www.w3.org/2000/svg">
<g style="mix-blend-mode:overlay" opacity="0.2">
<path d="M53.2844 22.5015C52.6043 19.7022 51.8249 16.8592 51.2405 13.974C50.778 11.6869 50.2964 9.35183 50.2868 7.03717C50.2726 3.45253 52.4076 1.39571 55.9841 1.01815C59.4925 0.650366 62.005 2.40203 62.944 5.79458C63.5904 8.12546 63.2595 10.3186 61.9031 12.2631C57.0508 19.1986 56.5024 26.975 57.4025 35.0013C57.6012 36.7748 58.2789 38.5766 59.0945 40.1847C60.4246 42.8077 62.4977 43.4347 65.2635 42.3637C67.3827 41.5437 69.1479 40.187 70.7692 38.6332C73.7431 35.7818 76.1429 32.5264 77.6773 28.6894C78.5376 26.5289 78.9299 24.3619 78.3481 21.9999C77.6651 19.2267 79.8243 16.2429 82.6861 15.661C85.7714 15.0319 88.7497 16.8746 89.4117 19.8272C90.1244 23.0019 88.2985 26.0004 85.0977 26.6528C83.2715 27.0238 81.978 28.0092 80.9574 29.4645C79.271 31.868 78.3238 34.5981 77.5239 37.3727C75.6784 43.8115 74.7817 50.4258 73.8734 57.0366C73.2843 61.3317 72.6562 65.6134 71.0157 69.6699C70.1178 71.8898 68.9917 73.9783 67.3593 75.7592C64.023 79.4083 59.8644 80.5129 55.1016 79.556C50.583 78.6417 46.7654 76.3155 43.2011 73.5232C39.1377 70.3361 35.9336 66.3546 32.6946 62.3846C30.2846 59.4308 27.8055 56.4924 25.0488 53.8668C20.2129 49.2601 14.3636 47.5559 7.70306 48.7107C4.51477 49.2639 1.55271 47.3543 0.640456 44.2813C-0.22857 41.3328 1.25227 38.1531 4.1124 36.8482C7.52404 35.2957 11.7298 37.0725 12.6149 40.6664C13.1978 43.0136 14.612 44.4778 16.5669 45.5333C21.8695 48.3998 27.5495 49.8215 33.6021 49.5227C34.5941 49.4398 35.5628 49.177 36.4604 48.7473C37.509 48.2778 37.7845 47.3154 37.373 46.2355C37.2273 45.8426 37.04 45.4663 36.8145 45.1128C33.9757 40.7543 31.1343 36.3993 28.2906 32.0477C27.4032 30.688 26.4763 29.3551 25.6041 27.9873C24.2471 25.8542 22.5056 24.0868 20.5324 22.5236C19.3409 21.569 18.1287 20.5795 17.1379 19.4223C16.362 18.5124 15.6778 17.3854 15.3697 16.244C14.5074 13.0325 16.5061 10.2389 19.9772 9.52227C23.1021 8.87729 26.2584 10.9241 26.6725 14.0397C26.8421 15.5311 26.8224 17.038 26.6137 18.5248C26.3266 20.824 26.7833 22.8283 28.1486 24.7293C31.8569 29.8921 35.6125 35.0194 40.4775 39.1816C41.9553 40.461 43.5925 41.5451 45.3487 42.4071C48.7502 44.0369 51.3548 42.8505 52.6706 39.3162C53.6629 36.6462 53.8712 33.8514 53.7957 31.0517C53.7203 28.252 53.4689 25.4127 53.2844 22.5015Z" fill="white"/>
</g>
</svg>
