<svg width="71" height="87" viewBox="0 0 71 87" fill="none" xmlns="http://www.w3.org/2000/svg">
<g style="mix-blend-mode:overlay" opacity="0.2">
<path d="M13.0663 35.8696C11.2007 36.4564 9.55617 37.0038 7.89184 37.4942C6.37698 37.9111 4.76031 37.7408 3.37321 37.0183C1.98611 36.2958 0.933652 35.0757 0.431553 33.6082C-0.070546 32.1407 0.0157515 30.537 0.672756 29.1256C1.32976 27.7143 2.50771 26.6023 3.96515 26.0176C5.01516 25.5538 6.17923 25.4056 7.31152 25.5916C8.44381 25.7776 9.49395 26.2896 10.3304 27.0634C13.2532 29.6594 16.8871 31.3482 20.7815 31.9205C23.3281 32.306 25.8553 32.7818 28.403 33.2108C30.1814 33.4901 32.0059 33.2405 33.6444 32.4938C35.2829 31.747 36.6613 30.5369 37.6043 29.0173C39.824 25.4303 39.4513 21.6287 36.86 18.1348C35.0226 15.6698 32.6486 13.6437 29.9117 12.2047C29.0291 11.739 28.2771 11.0653 27.7222 10.2432C27.1674 9.4211 26.8268 8.47593 26.7305 7.4912C26.6342 6.50648 26.7852 5.51251 27.1701 4.59714C27.555 3.68177 28.162 2.87318 28.9375 2.24283C29.8305 1.44116 30.9533 0.933289 32.1497 0.789926C33.3461 0.646563 34.5565 0.874835 35.6124 1.44297C36.7036 1.9084 37.6194 2.69861 38.2323 3.70368C38.8452 4.70876 39.1248 5.8787 39.0321 7.05075C38.6427 16.2489 45.8201 26.7786 57.6941 27.8375C63.3098 28.3315 67.2051 31.2975 69.2476 36.4497C71.8066 42.911 68.4363 50.4458 61.8951 53.2365C53.7299 56.7081 49.6439 63.0082 48.9737 71.6045C48.8333 74.0347 49.1967 76.4655 50.0419 78.7482C50.4536 79.8072 50.5379 80.9642 50.284 82.0731C50.0302 83.182 49.4496 84.1932 48.6156 84.9791C47.8335 85.8331 46.811 86.437 45.68 86.7128C44.5491 86.9886 43.3618 86.9236 42.2714 86.5262C41.1791 86.2065 40.2059 85.5796 39.4704 84.722C38.7348 83.8643 38.2687 82.813 38.1289 81.6961C37.9518 80.7456 38.0188 79.7655 38.3237 78.8452C38.6287 77.9249 39.1618 77.0937 39.8746 76.4273C42.364 73.9939 44.1329 70.9362 44.989 67.5865C45.9606 63.8083 44.9532 60.5632 41.9588 58.1258C38.9645 55.6884 35.5231 55.32 31.9799 57.0331C29.4022 58.2867 26.8368 59.6203 24.2706 60.9486C21.1243 62.6404 18.5097 65.1563 16.7157 68.2181C15.9478 69.6254 14.6519 70.6808 13.1071 71.157C11.5624 71.6332 9.89237 71.4921 8.45694 70.764C7.02152 70.0359 5.93555 68.7792 5.43299 67.2645C4.93044 65.7498 5.05153 64.0985 5.77017 62.6662C6.2644 61.5108 7.11284 60.5363 8.19589 59.8798C9.27894 59.2234 10.542 58.9182 11.807 59.0073C15.6773 59.3151 19.5584 58.4916 22.9669 56.6395C27.468 54.3093 31.9908 51.9758 36.5122 49.6699C37.6187 49.0463 38.4934 48.0878 39.0065 46.9369C39.5195 45.7859 39.6436 44.5038 39.3602 43.2809C39.1066 42.1321 38.5129 41.0848 37.6544 40.2717C36.796 39.4586 35.7113 38.9164 34.5379 38.7136C29.2331 37.8276 23.937 36.8528 18.6175 36.0511C16.7285 35.7997 14.8087 35.9248 13.0663 35.8696Z" fill="white"/>
</g>
</svg>
