<svg width="75" height="67" viewBox="0 0 75 67" fill="none" xmlns="http://www.w3.org/2000/svg">
<g style="mix-blend-mode:overlay" opacity="0.2">
<path d="M48.5464 14.4501C48.7783 12.1314 48.9374 9.8032 49.269 7.50025C49.4819 6.02919 49.7354 4.49439 50.3522 3.16654C51.485 0.723236 53.7285 0.0101696 56.3253 0.953831C58.6509 1.80141 60.0953 4.30599 59.6439 6.66797C59.3881 7.96641 58.761 9.1627 57.8384 10.1121C57.1215 10.8733 56.4018 11.6555 55.5693 12.2771C52.4034 14.6385 50.2611 17.7793 48.5053 21.2379C46.9811 24.2319 45.5768 27.276 44.7333 30.5479C43.8624 33.8309 43.8305 37.2804 44.6404 40.5803C45.1452 42.634 46.4572 43.4104 48.5662 43.0712C53.6228 42.2683 57.9821 40.0357 61.8273 36.7023C63.0171 35.6549 64.2757 34.6879 65.5946 33.808C66.5969 33.1383 67.6886 32.6128 68.8377 32.2468C70.8307 31.6368 72.5591 32.3065 73.5802 33.8595C74.6425 35.4731 74.5443 37.4093 73.2803 39.0351C72.0164 40.6608 70.3399 41.6437 68.2993 41.8871C66.9966 42.056 65.6808 42.1038 64.3691 42.0299C60.9616 41.7881 57.797 42.5914 54.8018 44.1042C52.7429 45.1466 50.7395 46.3044 48.7353 47.4534C46.1291 48.9472 44.5302 51.2762 43.6433 54.0634C42.9469 56.2564 42.4295 58.5101 41.9113 60.7552C41.1404 64.0952 38.4602 66.4407 35.1654 66.5442C33.8073 66.6162 32.4758 66.1467 31.4633 65.2389C29.5833 63.5744 27.5389 62.1674 25.2111 61.1781C22.4315 59.9963 19.5558 59.742 16.5979 60.1489C15.294 60.3288 13.999 60.5818 12.6917 60.7271C10.7619 60.9423 9.82976 60.2819 9.34906 58.3932C8.27062 54.283 8.52688 49.9379 10.0809 45.9847C11.0033 43.5823 11.868 41.153 12.6284 38.6949C13.3118 36.483 13.0579 34.2558 12.1091 32.1615C10.795 29.2801 9.55199 26.334 7.52312 23.8668C6.28152 22.3603 4.74849 21.1028 3.37702 19.7011C2.72174 19.0665 2.12733 18.3722 1.60159 17.6271C0.0209964 15.2489 0.487315 12.767 2.72127 11.3039C5.02754 9.79463 8.03706 10.3047 9.45244 12.6093C10.021 13.5413 10.3255 14.6749 10.585 15.755C10.7878 16.6036 10.766 17.5125 10.7959 18.3945C10.9663 23.2843 12.7502 27.5911 15.7028 31.4265C16.672 32.7125 18.0924 33.5848 19.6784 33.868C22.6153 34.3905 25.195 32.5212 25.49 29.5206C25.827 26.1058 25.9071 22.6663 26.2601 19.2544C26.5626 16.3199 26.2241 13.4786 25.4715 10.6555C25.2206 9.66692 24.9164 8.67619 24.7932 7.67621C24.6272 6.51173 24.5832 5.33323 24.662 4.15983C24.8445 2.07361 26.2771 0.693643 28.2862 0.454527C30.5918 0.179446 32.3489 1.17662 33.1001 3.22167C33.9577 5.55308 33.3462 7.70874 32.2566 9.7969C31.7856 10.7005 31.2789 11.5886 30.8541 12.5124C29.6494 15.1329 29.5293 17.9779 29.3351 20.7778C29.1466 23.529 29.1294 26.2984 29.1436 29.0584C29.1587 31.8439 30.0092 33.1119 32.1165 33.8487C34.5592 34.6986 36.8764 34.1129 38.4654 32.221C40.7577 29.4935 42.4988 26.4017 44.1627 23.2806C45.5992 20.5868 46.8469 17.7908 48.1744 15.0383C48.2677 14.8455 48.3241 14.6353 48.3986 14.4321L48.5464 14.4501Z" fill="white"/>
</g>
</svg>
